{"glyphs":{"0":{"ha":961,"x_min":0,"x_max":0,"o":"m 69 500 b 481 -14 69 197 217 -14 b 892 500 744 -14 892 197 b 481 1014 892 803 744 1014 b 69 500 217 1014 69 803 z m 192 500 b 481 906 192 753 299 906 b 769 500 663 906 769 753 b 481 94 769 247 663 94 b 192 500 299 94 192 247 z "},"1":{"ha":513,"x_min":0,"x_max":0,"o":"m 42 749 l 272 749 l 272 0 l 394 0 l 394 1000 l 278 1000 l 278 979 b 133 854 278 878 232 854 l 42 854 z "},"2":{"ha":835,"x_min":0,"x_max":0,"o":"m 56 694 l 178 694 b 421 908 188 844 285 908 b 646 724 557 908 646 838 b 449 428 646 611 574 540 l 76 92 l 76 0 l 786 0 l 786 111 l 256 111 l 533 351 b 768 724 685 483 768 571 b 421 1017 768 897 626 1017 b 56 715 215 1017 75 894 z "},"3":{"ha":836,"x_min":0,"x_max":0,"o":"m 39 293 b 421 -17 58 104 207 -17 b 783 282 635 -17 783 101 b 589 515 783 424 679 501 l 589 529 b 764 747 682 550 764 625 b 421 1017 764 908 622 1017 b 64 740 219 1017 79 900 l 64 719 l 183 719 b 418 911 192 844 288 911 b 642 739 549 911 642 847 b 418 568 642 631 549 568 l 313 568 l 313 463 l 426 463 b 661 285 571 463 661 396 b 421 89 661 165 571 89 b 161 314 271 89 175 165 l 39 314 z "},"4":{"ha":936,"x_min":0,"x_max":0,"o":"m 35 306 l 599 306 l 599 0 l 721 0 l 721 306 l 901 306 l 901 414 l 721 414 l 721 1000 l 568 1000 l 35 408 z m 185 414 l 585 857 l 599 857 l 599 414 z "},"5":{"ha":856,"x_min":0,"x_max":0,"o":"m 158 1000 l 104 439 l 224 439 b 428 547 247 475 303 547 b 665 322 572 547 665 458 b 421 92 665 186 572 92 b 171 306 269 92 182 196 l 49 306 l 49 285 b 421 -17 69 119 211 -17 b 788 325 639 -17 788 129 b 467 647 788 531 639 647 b 251 574 364 647 294 615 l 238 574 l 267 894 l 794 894 l 794 1000 z "},"6":{"ha":911,"x_min":0,"x_max":0,"o":"m 69 450 b 465 -17 69 139 244 -17 b 829 317 686 -17 829 128 b 493 633 829 503 683 633 b 206 472 350 633 253 569 l 192 472 b 503 908 194 771 331 908 b 718 722 644 908 713 825 l 840 722 l 840 743 b 508 1017 828 892 721 1017 b 69 450 243 1017 69 810 z m 228 308 b 465 525 228 431 319 525 b 704 308 611 525 704 431 b 465 92 704 186 611 92 b 228 308 319 92 228 186 z "},"7":{"ha":764,"x_min":0,"x_max":0,"o":"m 14 1000 l 14 894 l 614 894 l 188 21 l 188 0 l 313 0 l 750 911 l 750 1000 z "},"8":{"ha":911,"x_min":0,"x_max":0,"o":"m 86 750 b 257 519 86 643 149 563 l 257 506 b 69 267 140 464 69 381 b 456 -17 69 97 222 -17 b 842 267 686 -17 842 97 b 654 506 842 381 771 464 l 654 519 b 825 750 763 563 825 643 b 456 1017 825 911 681 1017 b 86 750 231 1017 86 911 z m 208 739 b 456 908 208 833 289 908 b 703 739 622 908 703 833 b 456 569 703 644 622 569 b 208 739 289 569 208 644 z m 192 276 b 456 461 192 382 281 461 b 719 276 631 461 719 382 b 456 92 719 171 631 92 b 192 276 281 92 192 171 z "},"9":{"ha":906,"x_min":0,"x_max":0,"o":"m 69 681 b 417 353 69 489 224 353 b 700 519 558 353 656 418 l 714 519 b 431 92 714 203 589 92 b 206 264 294 92 222 174 l 86 264 l 86 243 b 431 -17 113 108 225 -17 b 836 547 671 -17 836 165 b 433 1017 836 854 671 1017 b 69 681 215 1017 69 875 z m 194 686 b 436 908 194 814 290 908 b 678 686 582 908 678 814 b 436 464 678 558 582 464 b 194 686 290 464 194 558 z "}," ":{"ha":417,"x_min":0,"x_max":0,"o":""},"A":{"ha":950,"x_min":0,"x_max":0,"o":"m 35 0 l 158 0 l 264 286 l 686 286 l 792 0 l 915 0 l 915 21 l 543 1000 l 407 1000 l 35 21 z m 303 392 l 468 840 l 482 840 l 647 392 z "},"Á":{"ha":950,"x_min":0,"x_max":0,"o":"m 500 1076 l 639 1229 l 639 1250 l 500 1250 l 388 1097 l 388 1076 z m 35 0 l 158 0 l 264 286 l 686 286 l 792 0 l 915 0 l 915 21 l 543 1000 l 407 1000 l 35 21 z m 303 392 l 468 840 l 482 840 l 647 392 z "},"Ă":{"ha":950,"x_min":0,"x_max":0,"o":"m 475 1063 b 664 1229 596 1063 661 1143 l 664 1250 l 575 1250 b 475 1153 575 1190 542 1153 b 375 1250 408 1153 375 1193 l 286 1250 l 286 1229 b 475 1063 289 1143 354 1063 z m 543 1000 l 407 1000 l 35 21 l 35 0 l 158 0 l 264 286 l 686 286 l 792 0 l 915 0 l 915 21 z m 303 392 l 468 840 l 482 840 l 647 392 z "},"Â":{"ha":950,"x_min":0,"x_max":0,"o":"m 475 1175 l 579 1076 l 694 1076 l 694 1097 l 542 1250 l 408 1250 l 256 1097 l 256 1076 l 371 1076 z m 543 1000 l 407 1000 l 35 21 l 35 0 l 158 0 l 264 286 l 686 286 l 792 0 l 915 0 l 915 21 z m 303 392 l 468 840 l 482 840 l 647 392 z "},"Ä":{"ha":950,"x_min":0,"x_max":0,"o":"m 260 1229 l 260 1083 l 413 1083 l 413 1229 z m 538 1229 l 538 1083 l 690 1083 l 690 1229 z m 35 0 l 158 0 l 264 286 l 686 286 l 792 0 l 915 0 l 915 21 l 543 1000 l 407 1000 l 35 21 z m 303 392 l 468 840 l 482 840 l 647 392 z "},"À":{"ha":950,"x_min":0,"x_max":0,"o":"m 450 1076 l 563 1076 l 563 1097 l 450 1250 l 311 1250 l 311 1229 z m 35 0 l 158 0 l 264 286 l 686 286 l 792 0 l 915 0 l 915 21 l 543 1000 l 407 1000 l 35 21 z m 303 392 l 468 840 l 482 840 l 647 392 z "},"Ā":{"ha":950,"x_min":0,"x_max":0,"o":"m 276 1174 l 276 1083 l 674 1083 l 674 1174 z m 35 0 l 158 0 l 264 286 l 686 286 l 792 0 l 915 0 l 915 21 l 543 1000 l 407 1000 l 35 21 z m 303 392 l 468 840 l 482 840 l 647 392 z "},"Ą":{"ha":950,"x_min":0,"x_max":0,"o":"m 901 -189 b 842 -207 888 -197 869 -207 b 775 -142 801 -207 775 -178 b 915 0 775 -85 815 -46 l 915 21 l 543 1000 l 407 1000 l 35 21 l 35 0 l 158 0 l 264 286 l 686 286 l 792 0 b 672 -167 740 -35 672 -78 b 811 -294 672 -250 742 -294 b 922 -264 864 -294 901 -278 l 922 -189 z m 303 392 l 468 840 l 482 840 l 647 392 z "},"Å":{"ha":950,"x_min":0,"x_max":0,"o":"m 475 1051 b 600 1165 547 1051 600 1100 b 475 1279 600 1231 547 1279 b 350 1165 403 1279 350 1231 b 475 1051 350 1100 403 1051 z m 475 1118 b 422 1165 443 1118 422 1138 b 475 1213 422 1193 443 1213 b 528 1165 507 1213 528 1193 b 475 1118 528 1138 507 1118 z m 35 0 l 158 0 l 264 286 l 686 286 l 792 0 l 915 0 l 915 21 l 543 1000 l 407 1000 l 35 21 z m 303 392 l 468 840 l 482 840 l 647 392 z "},"Ã":{"ha":950,"x_min":0,"x_max":0,"o":"m 386 1153 b 567 1086 442 1153 485 1086 b 708 1217 647 1086 696 1139 l 708 1238 l 628 1238 b 563 1175 619 1194 596 1175 b 382 1242 507 1175 464 1242 b 240 1111 301 1242 253 1189 l 240 1090 l 321 1090 b 386 1153 329 1133 353 1153 z m 543 1000 l 407 1000 l 35 21 l 35 0 l 158 0 l 264 286 l 686 286 l 792 0 l 915 0 l 915 21 z m 303 392 l 468 840 l 482 840 l 647 392 z "},"Æ":{"ha":1379,"x_min":0,"x_max":0,"o":"m 35 0 l 165 0 l 321 286 l 668 286 l 668 0 l 1310 0 l 1310 108 l 790 108 l 790 461 l 1233 461 l 1233 567 l 790 567 l 790 894 l 1303 894 l 1303 1000 l 578 1000 l 35 21 z m 379 394 l 654 901 l 668 901 l 668 394 z "},"B":{"ha":951,"x_min":0,"x_max":0,"o":"m 118 1000 l 118 0 l 561 0 b 882 271 733 0 882 86 b 708 511 882 400 810 476 l 708 525 b 868 750 803 558 868 632 b 572 1000 868 919 735 1000 z m 240 894 l 557 894 b 746 731 671 894 746 849 b 557 567 746 613 671 567 l 240 567 z m 240 461 l 546 461 b 757 285 669 461 757 410 b 546 108 757 160 669 108 l 240 108 z "},"C":{"ha":1063,"x_min":0,"x_max":0,"o":"m 63 500 b 568 -17 63 174 276 -17 b 1007 306 828 -17 972 143 l 1007 326 l 879 326 b 564 92 850 199 763 92 b 185 500 332 92 185 250 b 564 911 185 750 332 911 b 865 681 742 911 846 808 l 990 681 l 990 701 b 568 1017 965 851 828 1017 b 63 500 276 1017 63 826 z "},"Ć":{"ha":1063,"x_min":0,"x_max":0,"o":"m 592 1076 l 731 1229 l 731 1250 l 592 1250 l 479 1097 l 479 1076 z m 63 500 b 568 -17 63 174 276 -17 b 1007 306 828 -17 972 143 l 1007 326 l 879 326 b 564 92 850 199 763 92 b 185 500 332 92 185 250 b 564 911 185 750 332 911 b 865 681 742 911 846 808 l 990 681 l 990 701 b 568 1017 965 851 828 1017 b 63 500 276 1017 63 826 z "},"Č":{"ha":1063,"x_min":0,"x_max":0,"o":"m 499 1076 l 632 1076 l 785 1229 l 785 1250 l 669 1250 l 565 1151 l 461 1250 l 346 1250 l 346 1229 z m 879 326 b 564 92 850 199 763 92 b 185 500 332 92 185 250 b 564 911 185 750 332 911 b 865 681 742 911 846 808 l 990 681 l 990 701 b 568 1017 965 851 828 1017 b 63 500 276 1017 63 826 b 568 -17 63 174 276 -17 b 1007 306 828 -17 972 143 l 1007 326 z "},"Ç":{"ha":1063,"x_min":0,"x_max":0,"o":"m 879 326 b 564 92 850 199 763 92 b 185 500 332 92 185 250 b 564 911 185 750 332 911 b 865 681 742 911 846 808 l 990 681 l 990 701 b 568 1017 965 851 828 1017 b 63 500 276 1017 63 826 b 531 -15 63 188 258 0 l 511 -101 l 511 -122 l 594 -122 b 650 -165 632 -122 650 -139 b 583 -215 650 -193 626 -215 b 446 -164 525 -215 479 -185 l 425 -164 l 425 -250 b 590 -292 457 -267 513 -292 b 747 -164 685 -292 747 -240 b 615 -62 747 -92 688 -58 l 594 -64 l 606 -15 b 1007 306 842 -1 974 151 l 1007 326 z "},"Ċ":{"ha":1063,"x_min":0,"x_max":0,"o":"m 497 1229 l 497 1083 l 650 1083 l 650 1229 z m 63 500 b 568 -17 63 174 276 -17 b 1007 306 828 -17 972 143 l 1007 326 l 879 326 b 564 92 850 199 763 92 b 185 500 332 92 185 250 b 564 911 185 750 332 911 b 865 681 742 911 846 808 l 990 681 l 990 701 b 568 1017 965 851 828 1017 b 63 500 276 1017 63 826 z "},"D":{"ha":1000,"x_min":0,"x_max":0,"o":"m 118 1000 l 118 0 l 457 0 b 938 500 756 0 938 188 b 457 1000 938 813 756 1000 z m 240 894 l 471 894 b 815 500 697 894 815 746 b 471 108 815 254 697 108 l 240 108 z "},"Ð":{"ha":1049,"x_min":0,"x_max":0,"o":"m 506 1000 l 167 1000 l 167 535 l 28 535 l 28 479 l 167 479 l 167 0 l 506 0 b 986 500 804 0 986 188 b 506 1000 986 813 804 1000 z m 519 108 l 289 108 l 289 479 l 463 479 l 463 535 l 289 535 l 289 894 l 519 894 b 864 500 746 894 864 746 b 519 108 864 254 746 108 z "},"Ď":{"ha":1000,"x_min":0,"x_max":0,"o":"m 365 1076 l 499 1076 l 651 1229 l 651 1250 l 536 1250 l 432 1151 l 328 1250 l 213 1250 l 213 1229 z m 457 1000 l 118 1000 l 118 0 l 457 0 b 938 500 756 0 938 188 b 457 1000 938 813 756 1000 z m 471 108 l 240 108 l 240 894 l 471 894 b 815 500 697 894 815 746 b 471 108 815 254 697 108 z "},"Đ":{"ha":1049,"x_min":0,"x_max":0,"o":"m 506 1000 l 167 1000 l 167 535 l 28 535 l 28 479 l 167 479 l 167 0 l 506 0 b 986 500 804 0 986 188 b 506 1000 986 813 804 1000 z m 519 108 l 289 108 l 289 479 l 463 479 l 463 535 l 289 535 l 289 894 l 519 894 b 864 500 746 894 864 746 b 519 108 864 254 746 108 z "},"E":{"ha":885,"x_min":0,"x_max":0,"o":"m 118 1000 l 118 0 l 815 0 l 815 108 l 240 108 l 240 461 l 739 461 l 739 567 l 240 567 l 240 894 l 808 894 l 808 1000 z "},"É":{"ha":885,"x_min":0,"x_max":0,"o":"m 496 1076 l 635 1229 l 635 1250 l 496 1250 l 383 1097 l 383 1076 z m 118 1000 l 118 0 l 815 0 l 815 108 l 240 108 l 240 461 l 739 461 l 739 567 l 240 567 l 240 894 l 808 894 l 808 1000 z "},"Ě":{"ha":885,"x_min":0,"x_max":0,"o":"m 403 1076 l 536 1076 l 689 1229 l 689 1250 l 574 1250 l 469 1151 l 365 1250 l 250 1250 l 250 1229 z m 240 108 l 240 461 l 739 461 l 739 567 l 240 567 l 240 894 l 808 894 l 808 1000 l 118 1000 l 118 0 l 815 0 l 815 108 z "},"Ê":{"ha":885,"x_min":0,"x_max":0,"o":"m 471 1175 l 575 1076 l 690 1076 l 690 1097 l 538 1250 l 404 1250 l 251 1097 l 251 1076 l 367 1076 z m 240 108 l 240 461 l 739 461 l 739 567 l 240 567 l 240 894 l 808 894 l 808 1000 l 118 1000 l 118 0 l 815 0 l 815 108 z "},"Ë":{"ha":885,"x_min":0,"x_max":0,"o":"m 256 1229 l 256 1083 l 408 1083 l 408 1229 z m 533 1229 l 533 1083 l 686 1083 l 686 1229 z m 118 1000 l 118 0 l 815 0 l 815 108 l 240 108 l 240 461 l 739 461 l 739 567 l 240 567 l 240 894 l 808 894 l 808 1000 z "},"Ė":{"ha":885,"x_min":0,"x_max":0,"o":"m 401 1229 l 401 1083 l 554 1083 l 554 1229 z m 118 1000 l 118 0 l 815 0 l 815 108 l 240 108 l 240 461 l 739 461 l 739 567 l 240 567 l 240 894 l 808 894 l 808 1000 z "},"È":{"ha":885,"x_min":0,"x_max":0,"o":"m 446 1076 l 558 1076 l 558 1097 l 446 1250 l 307 1250 l 307 1229 z m 118 1000 l 118 0 l 815 0 l 815 108 l 240 108 l 240 461 l 739 461 l 739 567 l 240 567 l 240 894 l 808 894 l 808 1000 z "},"Ē":{"ha":885,"x_min":0,"x_max":0,"o":"m 272 1174 l 272 1083 l 669 1083 l 669 1174 z m 118 1000 l 118 0 l 815 0 l 815 108 l 240 108 l 240 461 l 739 461 l 739 567 l 240 567 l 240 894 l 808 894 l 808 1000 z "},"Ę":{"ha":885,"x_min":0,"x_max":0,"o":"m 757 0 l 815 0 l 815 108 l 240 108 l 240 461 l 739 461 l 739 567 l 240 567 l 240 894 l 808 894 l 808 1000 l 118 1000 l 118 0 l 622 0 l 622 -14 b 539 -160 590 -39 539 -76 b 693 -294 539 -244 610 -294 b 801 -264 746 -294 781 -278 l 801 -189 l 781 -189 b 717 -207 765 -197 746 -207 b 642 -128 672 -207 642 -174 b 757 0 642 -68 700 -22 z "},"F":{"ha":815,"x_min":0,"x_max":0,"o":"m 118 1000 l 118 0 l 240 0 l 240 444 l 725 444 l 725 550 l 240 550 l 240 894 l 781 894 l 781 1000 z "},"G":{"ha":1069,"x_min":0,"x_max":0,"o":"m 63 500 b 544 -17 63 174 281 -17 b 847 111 683 -17 782 29 l 861 111 l 882 0 l 979 0 l 979 469 l 514 469 l 514 364 l 865 364 b 556 89 850 201 749 89 b 185 500 333 89 185 246 b 569 911 185 750 333 911 b 885 653 763 911 863 801 l 1007 653 l 1007 674 b 574 1017 981 850 838 1017 b 63 500 278 1017 63 826 z "},"Ğ":{"ha":1069,"x_min":0,"x_max":0,"o":"m 563 1063 b 751 1229 683 1063 749 1143 l 751 1250 l 663 1250 b 563 1153 663 1190 629 1153 b 463 1250 496 1153 463 1193 l 374 1250 l 374 1229 b 563 1063 376 1143 442 1063 z m 569 911 b 885 653 763 911 863 801 l 1007 653 l 1007 674 b 574 1017 981 850 838 1017 b 63 500 278 1017 63 826 b 544 -17 63 174 281 -17 b 847 111 683 -17 782 29 l 861 111 l 882 0 l 979 0 l 979 469 l 514 469 l 514 364 l 865 364 b 556 89 850 201 749 89 b 185 500 333 89 185 246 b 569 911 185 750 333 911 z "},"Ģ":{"ha":1069,"x_min":0,"x_max":0,"o":"m 569 911 b 885 653 763 911 863 801 l 1007 653 l 1007 674 b 574 1017 981 850 838 1017 b 63 500 278 1017 63 826 b 544 -17 63 174 281 -17 b 847 111 683 -17 782 29 l 861 111 l 882 0 l 979 0 l 979 469 l 514 469 l 514 364 l 865 364 b 556 89 850 201 749 89 b 185 500 333 89 185 246 b 569 911 185 750 333 911 z m 481 -236 l 569 -236 l 569 -254 b 481 -332 569 -312 543 -332 l 453 -332 l 453 -401 l 485 -401 b 647 -250 592 -401 647 -356 l 647 -83 l 481 -83 z "},"Ġ":{"ha":1069,"x_min":0,"x_max":0,"o":"m 493 1229 l 493 1083 l 646 1083 l 646 1229 z m 63 500 b 544 -17 63 174 281 -17 b 847 111 683 -17 782 29 l 861 111 l 882 0 l 979 0 l 979 469 l 514 469 l 514 364 l 865 364 b 556 89 850 201 749 89 b 185 500 333 89 185 246 b 569 911 185 750 333 911 b 885 653 763 911 863 801 l 1007 653 l 1007 674 b 574 1017 981 850 838 1017 b 63 500 278 1017 63 826 z "},"H":{"ha":1000,"x_min":0,"x_max":0,"o":"m 118 1000 l 118 0 l 240 0 l 240 468 l 760 468 l 760 0 l 882 0 l 882 1000 l 760 1000 l 760 574 l 240 574 l 240 1000 z "},"Ħ":{"ha":1069,"x_min":0,"x_max":0,"o":"m 1042 811 l 917 811 l 917 1000 l 794 1000 l 794 811 l 275 811 l 275 1000 l 153 1000 l 153 811 l 28 811 l 28 756 l 153 756 l 153 0 l 275 0 l 275 468 l 794 468 l 794 0 l 917 0 l 917 756 l 1042 756 z m 794 574 l 275 574 l 275 756 l 794 756 z "},"I":{"ha":358,"x_min":0,"x_max":0,"o":"m 118 1000 l 118 0 l 240 0 l 240 1000 z "},"Ĳ":{"ha":856,"x_min":0,"x_max":0,"o":"m 111 1000 l 111 444 l 233 444 l 233 1000 z m 622 1000 l 622 299 b 428 92 622 167 574 92 b 233 299 296 92 233 160 l 111 299 b 428 -17 111 69 251 -17 b 744 299 611 -17 744 76 l 744 1000 z "},"Í":{"ha":358,"x_min":0,"x_max":0,"o":"m 204 1076 l 343 1229 l 343 1250 l 204 1250 l 92 1097 l 92 1076 z m 118 1000 l 118 0 l 240 0 l 240 1000 z "},"Î":{"ha":358,"x_min":0,"x_max":0,"o":"m 246 1250 l 113 1250 l -40 1097 l -40 1076 l 75 1076 l 179 1175 l 283 1076 l 399 1076 l 399 1097 z m 118 0 l 240 0 l 240 1000 l 118 1000 z "},"Ï":{"ha":358,"x_min":0,"x_max":0,"o":"m -36 1229 l -36 1083 l 117 1083 l 117 1229 z m 242 1229 l 242 1083 l 394 1083 l 394 1229 z m 118 1000 l 118 0 l 240 0 l 240 1000 z "},"İ":{"ha":358,"x_min":0,"x_max":0,"o":"m 110 1229 l 110 1083 l 263 1083 l 263 1229 z m 118 1000 l 118 0 l 240 0 l 240 1000 z "},"Ì":{"ha":358,"x_min":0,"x_max":0,"o":"m 154 1076 l 267 1076 l 267 1097 l 154 1250 l 15 1250 l 15 1229 z m 118 1000 l 118 0 l 240 0 l 240 1000 z "},"Ī":{"ha":358,"x_min":0,"x_max":0,"o":"m -19 1174 l -19 1083 l 378 1083 l 378 1174 z m 118 1000 l 118 0 l 240 0 l 240 1000 z "},"Į":{"ha":358,"x_min":0,"x_max":0,"o":"m 271 -189 b 211 -207 257 -197 238 -207 b 147 -139 175 -207 147 -179 b 240 0 147 -82 185 -46 l 240 1000 l 118 1000 l 118 -22 b 44 -167 86 -54 44 -93 b 186 -294 44 -250 115 -294 b 292 -264 235 -294 272 -278 l 292 -189 z "},"J":{"ha":799,"x_min":0,"x_max":0,"o":"m 565 1000 l 565 299 b 368 92 565 167 514 92 b 171 299 236 92 171 160 l 49 299 b 368 -17 49 69 192 -17 b 688 299 551 -17 688 76 l 688 1000 z "},"K":{"ha":979,"x_min":0,"x_max":0,"o":"m 951 1000 l 799 1000 l 254 504 l 240 504 l 240 1000 l 118 1000 l 118 0 l 240 0 l 240 346 l 468 549 l 821 0 l 951 0 l 951 21 l 557 628 l 951 979 z "},"Ķ":{"ha":979,"x_min":0,"x_max":0,"o":"m 951 1000 l 799 1000 l 254 504 l 240 504 l 240 1000 l 118 1000 l 118 0 l 240 0 l 240 346 l 468 549 l 821 0 l 951 0 l 951 21 l 557 628 l 951 979 z m 419 -236 l 508 -236 l 508 -254 b 419 -332 508 -312 482 -332 l 392 -332 l 392 -401 l 424 -401 b 586 -250 531 -401 586 -356 l 586 -83 l 419 -83 z "},"L":{"ha":806,"x_min":0,"x_max":0,"o":"m 118 1000 l 118 0 l 778 0 l 778 108 l 240 108 l 240 1000 z "},"Ĺ":{"ha":806,"x_min":0,"x_max":0,"o":"m 206 1076 l 344 1229 l 344 1250 l 206 1250 l 93 1097 l 93 1076 z m 118 1000 l 118 0 l 778 0 l 778 108 l 240 108 l 240 1000 z "},"Ľ":{"ha":806,"x_min":0,"x_max":0,"o":"m 118 1000 l 118 0 l 778 0 l 778 108 l 240 108 l 240 1000 z m 397 743 l 463 979 l 463 1000 l 332 1000 l 318 764 l 318 743 z "},"Ļ":{"ha":806,"x_min":0,"x_max":0,"o":"m 240 108 l 240 1000 l 118 1000 l 118 0 l 778 0 l 778 108 z m 371 -236 l 460 -236 l 460 -254 b 371 -332 460 -312 433 -332 l 343 -332 l 343 -401 l 375 -401 b 538 -250 482 -401 538 -356 l 538 -83 l 371 -83 z "},"Ŀ":{"ha":806,"x_min":0,"x_max":0,"o":"m 118 1000 l 118 0 l 778 0 l 778 108 l 240 108 l 240 1000 z m 486 608 l 486 456 l 653 456 l 653 608 z "},"Ł":{"ha":854,"x_min":0,"x_max":0,"o":"m 289 108 l 289 492 l 435 563 l 435 617 l 414 617 l 289 556 l 289 1000 l 167 1000 l 167 497 l 28 429 l 28 375 l 49 375 l 167 432 l 167 0 l 826 0 l 826 108 z "},"M":{"ha":1319,"x_min":0,"x_max":0,"o":"m 118 1000 l 118 0 l 240 0 l 240 778 l 254 778 l 590 0 l 729 0 l 1065 778 l 1079 778 l 1079 0 l 1201 0 l 1201 1000 l 1036 1000 l 667 139 l 653 139 l 283 1000 z "},"N":{"ha":1014,"x_min":0,"x_max":0,"o":"m 118 1000 l 118 0 l 240 0 l 240 819 l 254 819 l 731 0 l 896 0 l 896 1000 l 774 1000 l 774 181 l 760 181 l 283 1000 z "},"Ń":{"ha":1014,"x_min":0,"x_max":0,"o":"m 549 1076 l 688 1229 l 688 1250 l 549 1250 l 436 1097 l 436 1076 z m 118 1000 l 118 0 l 240 0 l 240 819 l 254 819 l 731 0 l 896 0 l 896 1000 l 774 1000 l 774 181 l 760 181 l 283 1000 z "},"Ň":{"ha":1014,"x_min":0,"x_max":0,"o":"m 456 1076 l 589 1076 l 742 1229 l 742 1250 l 626 1250 l 522 1151 l 418 1250 l 303 1250 l 303 1229 z m 774 1000 l 774 181 l 760 181 l 283 1000 l 118 1000 l 118 0 l 240 0 l 240 819 l 254 819 l 731 0 l 896 0 l 896 1000 z "},"Ņ":{"ha":1014,"x_min":0,"x_max":0,"o":"m 774 1000 l 774 181 l 760 181 l 283 1000 l 118 1000 l 118 0 l 240 0 l 240 819 l 254 819 l 731 0 l 896 0 l 896 1000 z m 431 -236 l 519 -236 l 519 -254 b 431 -332 519 -312 493 -332 l 403 -332 l 403 -401 l 435 -401 b 597 -250 542 -401 597 -356 l 597 -83 l 431 -83 z "},"Ŋ":{"ha":1014,"x_min":0,"x_max":0,"o":"m 774 1000 l 774 181 l 760 181 l 283 1000 l 118 1000 l 118 0 l 240 0 l 240 819 l 254 819 l 731 0 l 785 0 l 785 -167 l 774 -178 l 583 -178 l 583 -278 l 722 -278 b 896 -103 833 -278 896 -214 l 896 1000 z "},"Ñ":{"ha":1014,"x_min":0,"x_max":0,"o":"m 435 1153 b 615 1086 490 1153 533 1086 b 757 1217 696 1086 744 1139 l 757 1238 l 676 1238 b 611 1175 668 1194 644 1175 b 431 1242 556 1175 513 1242 b 289 1111 350 1242 301 1189 l 289 1090 l 369 1090 b 435 1153 378 1133 401 1153 z m 774 1000 l 774 181 l 760 181 l 283 1000 l 118 1000 l 118 0 l 240 0 l 240 819 l 254 819 l 731 0 l 896 0 l 896 1000 z "},"O":{"ha":1125,"x_min":0,"x_max":0,"o":"m 63 500 b 563 -17 63 174 275 -17 b 1063 500 850 -17 1063 174 b 563 1017 1063 826 850 1017 b 63 500 275 1017 63 826 z m 185 500 b 563 911 185 750 331 911 b 940 500 794 911 940 750 b 563 92 940 250 794 92 b 185 500 331 92 185 250 z "},"Ó":{"ha":1125,"x_min":0,"x_max":0,"o":"m 588 1076 l 726 1229 l 726 1250 l 588 1250 l 475 1097 l 475 1076 z m 63 500 b 563 -17 63 174 275 -17 b 1063 500 850 -17 1063 174 b 563 1017 1063 826 850 1017 b 63 500 275 1017 63 826 z m 185 500 b 563 911 185 750 331 911 b 940 500 794 911 940 750 b 563 92 940 250 794 92 b 185 500 331 92 185 250 z "},"Ô":{"ha":1125,"x_min":0,"x_max":0,"o":"m 563 1175 l 667 1076 l 782 1076 l 782 1097 l 629 1250 l 496 1250 l 343 1097 l 343 1076 l 458 1076 z m 563 1017 b 63 500 275 1017 63 826 b 563 -17 63 174 275 -17 b 1063 500 850 -17 1063 174 b 563 1017 1063 826 850 1017 z m 563 92 b 185 500 331 92 185 250 b 563 911 185 750 331 911 b 940 500 794 911 940 750 b 563 92 940 250 794 92 z "},"Ö":{"ha":1125,"x_min":0,"x_max":0,"o":"m 347 1229 l 347 1083 l 500 1083 l 500 1229 z m 625 1229 l 625 1083 l 778 1083 l 778 1229 z m 63 500 b 563 -17 63 174 275 -17 b 1063 500 850 -17 1063 174 b 563 1017 1063 826 850 1017 b 63 500 275 1017 63 826 z m 185 500 b 563 911 185 750 331 911 b 940 500 794 911 940 750 b 563 92 940 250 794 92 b 185 500 331 92 185 250 z "},"Ò":{"ha":1125,"x_min":0,"x_max":0,"o":"m 538 1076 l 650 1076 l 650 1097 l 538 1250 l 399 1250 l 399 1229 z m 63 500 b 563 -17 63 174 275 -17 b 1063 500 850 -17 1063 174 b 563 1017 1063 826 850 1017 b 63 500 275 1017 63 826 z m 185 500 b 563 911 185 750 331 911 b 940 500 794 911 940 750 b 563 92 940 250 794 92 b 185 500 331 92 185 250 z "},"Ő":{"ha":1125,"x_min":0,"x_max":0,"o":"m 481 1076 l 592 1229 l 592 1250 l 458 1250 l 374 1097 l 374 1076 z m 683 1076 l 822 1229 l 822 1250 l 683 1250 l 571 1097 l 571 1076 z m 63 500 b 563 -17 63 174 275 -17 b 1063 500 850 -17 1063 174 b 563 1017 1063 826 850 1017 b 63 500 275 1017 63 826 z m 185 500 b 563 911 185 750 331 911 b 940 500 794 911 940 750 b 563 92 940 250 794 92 b 185 500 331 92 185 250 z "},"Ō":{"ha":1125,"x_min":0,"x_max":0,"o":"m 364 1174 l 364 1083 l 761 1083 l 761 1174 z m 63 500 b 563 -17 63 174 275 -17 b 1063 500 850 -17 1063 174 b 563 1017 1063 826 850 1017 b 63 500 275 1017 63 826 z m 185 500 b 563 911 185 750 331 911 b 940 500 794 911 940 750 b 563 92 940 250 794 92 b 185 500 331 92 185 250 z "},"Ø":{"ha":1125,"x_min":0,"x_max":0,"o":"m 917 885 l 993 979 l 993 1000 l 931 1000 l 869 925 b 563 1017 786 985 681 1017 b 63 500 275 1017 63 826 b 208 115 63 335 117 204 l 132 21 l 132 0 l 194 0 l 256 75 b 563 -17 339 15 444 -17 b 1063 500 850 -17 1063 174 b 917 885 1063 665 1008 796 z m 185 500 b 563 911 185 750 331 911 b 797 838 656 911 736 885 l 283 206 b 185 500 219 276 185 378 z m 563 92 b 328 164 469 92 390 117 l 843 794 b 940 500 906 724 940 622 b 563 92 940 250 794 92 z "},"Õ":{"ha":1125,"x_min":0,"x_max":0,"o":"m 474 1153 b 654 1086 529 1153 572 1086 b 796 1217 735 1086 783 1139 l 796 1238 l 715 1238 b 650 1175 707 1194 683 1175 b 469 1242 594 1175 551 1242 b 328 1111 389 1242 340 1189 l 328 1090 l 408 1090 b 474 1153 417 1133 440 1153 z m 563 1017 b 63 500 275 1017 63 826 b 563 -17 63 174 275 -17 b 1063 500 850 -17 1063 174 b 563 1017 1063 826 850 1017 z m 563 92 b 185 500 331 92 185 250 b 563 911 185 750 331 911 b 940 500 794 911 940 750 b 563 92 940 250 794 92 z "},"Œ":{"ha":1325,"x_min":0,"x_max":0,"o":"m 63 500 b 619 0 63 179 297 0 l 1256 0 l 1256 108 l 736 108 l 736 461 l 1179 461 l 1179 567 l 736 567 l 736 894 l 1249 894 l 1249 1000 l 619 1000 b 63 500 297 1000 63 821 z m 185 500 b 614 897 185 753 353 903 l 614 106 b 185 500 353 100 185 247 z "},"P":{"ha":896,"x_min":0,"x_max":0,"o":"m 118 1000 l 118 0 l 240 0 l 240 422 l 553 422 b 861 711 725 422 861 532 b 553 1000 861 890 725 1000 z m 240 894 l 533 894 b 736 711 661 894 736 833 b 533 528 736 589 661 528 l 240 528 z "},"Þ":{"ha":894,"x_min":0,"x_max":0,"o":"m 118 1000 l 118 0 l 240 0 l 240 225 l 551 225 b 860 514 724 225 860 335 b 551 803 860 693 724 803 l 240 803 l 240 1000 z m 240 697 l 532 697 b 735 514 660 697 735 636 b 532 331 735 392 660 331 l 240 331 z "},"Q":{"ha":1125,"x_min":0,"x_max":0,"o":"m 1063 500 b 563 1017 1063 826 850 1017 b 63 500 275 1017 63 826 b 507 -14 63 194 249 8 l 507 -62 b 681 -236 507 -174 569 -236 l 785 -236 l 785 -136 l 629 -136 l 618 -125 l 618 -14 b 1063 500 876 8 1063 194 z m 185 500 b 563 911 185 750 331 911 b 940 500 794 911 940 750 b 563 92 940 250 794 92 b 185 500 331 92 185 250 z "},"R":{"ha":951,"x_min":0,"x_max":0,"o":"m 889 710 b 581 1000 889 890 753 1000 l 118 1000 l 118 0 l 240 0 l 240 419 l 496 419 l 715 0 l 840 0 l 840 21 l 624 422 b 889 710 775 439 889 544 z m 240 894 l 561 894 b 764 710 689 894 764 833 b 561 525 764 586 689 525 l 240 525 z "},"Ŕ":{"ha":951,"x_min":0,"x_max":0,"o":"m 621 1229 l 621 1250 l 482 1250 l 369 1097 l 369 1076 l 482 1076 z m 889 710 b 581 1000 889 890 753 1000 l 118 1000 l 118 0 l 240 0 l 240 419 l 496 419 l 715 0 l 840 0 l 840 21 l 624 422 b 889 710 775 439 889 544 z m 240 894 l 561 894 b 764 710 689 894 764 833 b 561 525 764 586 689 525 l 240 525 z "},"Ř":{"ha":951,"x_min":0,"x_max":0,"o":"m 389 1076 l 522 1076 l 675 1229 l 675 1250 l 560 1250 l 456 1151 l 351 1250 l 236 1250 l 236 1229 z m 889 710 b 581 1000 889 890 753 1000 l 118 1000 l 118 0 l 240 0 l 240 419 l 496 419 l 715 0 l 840 0 l 840 21 l 624 422 b 889 710 775 439 889 544 z m 240 894 l 561 894 b 764 710 689 894 764 833 b 561 525 764 586 689 525 l 240 525 z "},"Ŗ":{"ha":951,"x_min":0,"x_max":0,"o":"m 889 710 b 581 1000 889 890 753 1000 l 118 1000 l 118 0 l 240 0 l 240 419 l 496 419 l 715 0 l 840 0 l 840 21 l 624 422 b 889 710 775 439 889 544 z m 240 894 l 561 894 b 764 710 689 894 764 833 b 561 525 764 586 689 525 l 240 525 z m 379 -236 l 468 -236 l 468 -254 b 379 -332 468 -312 442 -332 l 351 -332 l 351 -401 l 383 -401 b 546 -250 490 -401 546 -356 l 546 -83 l 379 -83 z "},"S":{"ha":958,"x_min":0,"x_max":0,"o":"m 110 736 b 390 469 110 576 225 506 l 492 447 b 744 274 638 415 744 393 b 471 92 744 151 624 92 b 169 326 315 92 186 154 l 42 326 l 42 306 b 465 -17 64 96 225 -17 b 867 281 703 -17 867 97 b 550 556 867 465 713 519 l 449 578 b 232 740 311 608 232 633 b 489 911 232 849 344 911 b 750 701 638 911 743 854 l 875 701 l 875 722 b 488 1017 856 910 714 1017 b 110 736 257 1017 110 906 z "},"Ś":{"ha":958,"x_min":0,"x_max":0,"o":"m 514 1076 l 653 1229 l 653 1250 l 514 1250 l 401 1097 l 401 1076 z m 110 736 b 390 469 110 576 225 506 l 492 447 b 744 274 638 415 744 393 b 471 92 744 151 624 92 b 169 326 315 92 186 154 l 42 326 l 42 306 b 465 -17 64 96 225 -17 b 867 281 703 -17 867 97 b 550 556 867 465 713 519 l 449 578 b 232 740 311 608 232 633 b 489 911 232 849 344 911 b 750 701 638 911 743 854 l 875 701 l 875 722 b 488 1017 856 910 714 1017 b 110 736 257 1017 110 906 z "},"Š":{"ha":958,"x_min":0,"x_max":0,"o":"m 421 1076 l 554 1076 l 707 1229 l 707 1250 l 592 1250 l 488 1151 l 383 1250 l 268 1250 l 268 1229 z m 489 911 b 750 701 638 911 743 854 l 875 701 l 875 722 b 488 1017 856 910 714 1017 b 110 736 257 1017 110 906 b 390 469 110 576 225 506 l 492 447 b 744 274 638 415 744 393 b 471 92 744 151 624 92 b 169 326 315 92 186 154 l 42 326 l 42 306 b 465 -17 64 96 225 -17 b 867 281 703 -17 867 97 b 550 556 867 465 713 519 l 449 578 b 232 740 311 608 232 633 b 489 911 232 849 344 911 z "},"Ş":{"ha":958,"x_min":0,"x_max":0,"o":"m 489 911 b 750 701 638 911 743 854 l 875 701 l 875 722 b 488 1017 856 910 714 1017 b 110 736 257 1017 110 906 b 390 469 110 576 225 506 l 492 447 b 744 274 638 415 744 393 b 471 92 744 151 624 92 b 169 326 315 92 186 154 l 42 326 l 42 306 b 426 -15 63 107 207 -4 l 407 -101 l 407 -122 l 490 -122 b 546 -165 528 -122 546 -139 b 479 -215 546 -193 522 -215 b 342 -164 421 -215 375 -185 l 321 -164 l 321 -250 b 486 -292 353 -267 408 -292 b 643 -164 581 -292 643 -240 b 511 -62 643 -92 583 -58 l 490 -64 l 501 -15 b 867 281 719 -6 867 107 b 550 556 867 465 713 519 l 449 578 b 232 740 311 608 232 633 b 489 911 232 849 344 911 z "},"Ș":{"ha":958,"x_min":0,"x_max":0,"o":"m 489 911 b 750 701 638 911 743 854 l 875 701 l 875 722 b 488 1017 856 910 714 1017 b 110 736 257 1017 110 906 b 390 469 110 576 225 506 l 492 447 b 744 274 638 415 744 393 b 471 92 744 151 624 92 b 169 326 315 92 186 154 l 42 326 l 42 306 b 465 -17 64 96 225 -17 b 867 281 703 -17 867 97 b 550 556 867 465 713 519 l 449 578 b 232 740 311 608 232 633 b 489 911 232 849 344 911 z m 382 -236 l 471 -236 l 471 -254 b 382 -332 471 -312 444 -332 l 354 -332 l 354 -401 l 386 -401 b 549 -250 493 -401 549 -356 l 549 -83 l 382 -83 z "},"T":{"ha":847,"x_min":0,"x_max":0,"o":"m 14 1000 l 14 894 l 363 894 l 363 0 l 485 0 l 485 894 l 833 894 l 833 1000 z "},"Ŧ":{"ha":847,"x_min":0,"x_max":0,"o":"m 833 894 l 833 1000 l 14 1000 l 14 894 l 363 894 l 363 556 l 189 556 l 189 500 l 363 500 l 363 0 l 485 0 l 485 500 l 658 500 l 658 556 l 485 556 l 485 894 z "},"Ť":{"ha":847,"x_min":0,"x_max":0,"o":"m 356 1076 l 489 1076 l 642 1229 l 642 1250 l 526 1250 l 422 1151 l 318 1250 l 203 1250 l 203 1229 z m 14 1000 l 14 894 l 363 894 l 363 0 l 485 0 l 485 894 l 833 894 l 833 1000 z "},"Ţ":{"ha":847,"x_min":0,"x_max":0,"o":"m 485 0 l 485 894 l 833 894 l 833 1000 l 14 1000 l 14 894 l 363 894 l 363 0 l 388 0 l 365 -101 l 365 -122 l 449 -122 b 504 -165 486 -122 504 -139 b 438 -215 504 -193 481 -215 b 300 -164 379 -215 333 -185 l 279 -164 l 279 -250 b 444 -292 311 -267 367 -292 b 601 -164 539 -292 601 -240 b 469 -62 601 -92 542 -58 l 449 -64 l 463 0 z "},"Ț":{"ha":847,"x_min":0,"x_max":0,"o":"m 14 1000 l 14 894 l 363 894 l 363 0 l 485 0 l 485 894 l 833 894 l 833 1000 z m 340 -236 l 429 -236 l 429 -254 b 340 -332 429 -312 403 -332 l 313 -332 l 313 -401 l 344 -401 b 507 -250 451 -401 507 -356 l 507 -83 l 340 -83 z "},"U":{"ha":1000,"x_min":0,"x_max":0,"o":"m 111 1000 l 111 365 b 500 -17 111 129 233 -17 b 889 365 760 -17 889 129 l 889 1000 l 767 1000 l 767 365 b 500 92 767 171 676 92 b 233 365 324 92 233 171 l 233 1000 z "},"Ú":{"ha":1000,"x_min":0,"x_max":0,"o":"m 525 1076 l 664 1229 l 664 1250 l 525 1250 l 413 1097 l 413 1076 z m 111 1000 l 111 365 b 500 -17 111 129 233 -17 b 889 365 760 -17 889 129 l 889 1000 l 767 1000 l 767 365 b 500 92 767 171 676 92 b 233 365 324 92 233 171 l 233 1000 z "},"Û":{"ha":1000,"x_min":0,"x_max":0,"o":"m 500 1175 l 604 1076 l 719 1076 l 719 1097 l 567 1250 l 433 1250 l 281 1097 l 281 1076 l 396 1076 z m 767 1000 l 767 365 b 500 92 767 171 676 92 b 233 365 324 92 233 171 l 233 1000 l 111 1000 l 111 365 b 500 -17 111 129 233 -17 b 889 365 760 -17 889 129 l 889 1000 z "},"Ü":{"ha":1000,"x_min":0,"x_max":0,"o":"m 285 1229 l 285 1083 l 438 1083 l 438 1229 z m 563 1229 l 563 1083 l 715 1083 l 715 1229 z m 111 1000 l 111 365 b 500 -17 111 129 233 -17 b 889 365 760 -17 889 129 l 889 1000 l 767 1000 l 767 365 b 500 92 767 171 676 92 b 233 365 324 92 233 171 l 233 1000 z "},"Ù":{"ha":1000,"x_min":0,"x_max":0,"o":"m 475 1076 l 588 1076 l 588 1097 l 475 1250 l 336 1250 l 336 1229 z m 111 1000 l 111 365 b 500 -17 111 129 233 -17 b 889 365 760 -17 889 129 l 889 1000 l 767 1000 l 767 365 b 500 92 767 171 676 92 b 233 365 324 92 233 171 l 233 1000 z "},"Ű":{"ha":1000,"x_min":0,"x_max":0,"o":"m 418 1076 l 529 1229 l 529 1250 l 396 1250 l 311 1097 l 311 1076 z m 621 1076 l 760 1229 l 760 1250 l 621 1250 l 508 1097 l 508 1076 z m 111 1000 l 111 365 b 500 -17 111 129 233 -17 b 889 365 760 -17 889 129 l 889 1000 l 767 1000 l 767 365 b 500 92 767 171 676 92 b 233 365 324 92 233 171 l 233 1000 z "},"Ū":{"ha":1000,"x_min":0,"x_max":0,"o":"m 301 1174 l 301 1083 l 699 1083 l 699 1174 z m 111 1000 l 111 365 b 500 -17 111 129 233 -17 b 889 365 760 -17 889 129 l 889 1000 l 767 1000 l 767 365 b 500 92 767 171 676 92 b 233 365 324 92 233 171 l 233 1000 z "},"Ų":{"ha":1000,"x_min":0,"x_max":0,"o":"m 767 1000 l 767 365 b 500 92 767 171 676 92 b 233 365 324 92 233 171 l 233 1000 l 111 1000 l 111 365 b 500 -17 111 129 233 -17 b 583 -11 529 -17 557 -15 l 583 -25 b 500 -169 538 -62 500 -103 b 643 -294 500 -247 565 -294 b 750 -264 694 -294 731 -278 l 750 -189 l 729 -189 b 669 -207 715 -197 696 -207 b 604 -143 629 -207 604 -178 b 764 60 604 -89 650 -37 b 889 365 847 126 889 231 l 889 1000 z "},"Ů":{"ha":1000,"x_min":0,"x_max":0,"o":"m 500 1051 b 625 1165 572 1051 625 1100 b 500 1279 625 1231 572 1279 b 375 1165 428 1279 375 1231 b 500 1051 375 1100 428 1051 z m 500 1118 b 447 1165 468 1118 447 1138 b 500 1213 447 1193 468 1213 b 553 1165 532 1213 553 1193 b 500 1118 553 1138 532 1118 z m 111 1000 l 111 365 b 500 -17 111 129 233 -17 b 889 365 760 -17 889 129 l 889 1000 l 767 1000 l 767 365 b 500 92 767 171 676 92 b 233 365 324 92 233 171 l 233 1000 z "},"V":{"ha":950,"x_min":0,"x_max":0,"o":"m 35 1000 l 35 979 l 407 0 l 543 0 l 915 979 l 915 1000 l 792 1000 l 482 160 l 468 160 l 158 1000 z "},"W":{"ha":1389,"x_min":0,"x_max":0,"o":"m 35 1000 l 35 979 l 286 0 l 442 0 l 688 825 l 701 825 l 947 0 l 1103 0 l 1354 979 l 1354 1000 l 1229 1000 l 1025 167 l 1011 167 l 771 1000 l 618 1000 l 378 167 l 364 167 l 160 1000 z "},"Ẃ":{"ha":1389,"x_min":0,"x_max":0,"o":"m 719 1076 l 858 1229 l 858 1250 l 719 1250 l 607 1097 l 607 1076 z m 35 1000 l 35 979 l 286 0 l 442 0 l 688 825 l 701 825 l 947 0 l 1103 0 l 1354 979 l 1354 1000 l 1229 1000 l 1025 167 l 1011 167 l 771 1000 l 618 1000 l 378 167 l 364 167 l 160 1000 z "},"Ŵ":{"ha":1389,"x_min":0,"x_max":0,"o":"m 694 1175 l 799 1076 l 914 1076 l 914 1097 l 761 1250 l 628 1250 l 475 1097 l 475 1076 l 590 1076 z m 1229 1000 l 1025 167 l 1011 167 l 771 1000 l 618 1000 l 378 167 l 364 167 l 160 1000 l 35 1000 l 35 979 l 286 0 l 442 0 l 688 825 l 701 825 l 947 0 l 1103 0 l 1354 979 l 1354 1000 z "},"Ẅ":{"ha":1389,"x_min":0,"x_max":0,"o":"m 479 1229 l 479 1083 l 632 1083 l 632 1229 z m 757 1229 l 757 1083 l 910 1083 l 910 1229 z m 35 1000 l 35 979 l 286 0 l 442 0 l 688 825 l 701 825 l 947 0 l 1103 0 l 1354 979 l 1354 1000 l 1229 1000 l 1025 167 l 1011 167 l 771 1000 l 618 1000 l 378 167 l 364 167 l 160 1000 z "},"Ẁ":{"ha":1389,"x_min":0,"x_max":0,"o":"m 669 1076 l 782 1076 l 782 1097 l 669 1250 l 531 1250 l 531 1229 z m 35 1000 l 35 979 l 286 0 l 442 0 l 688 825 l 701 825 l 947 0 l 1103 0 l 1354 979 l 1354 1000 l 1229 1000 l 1025 167 l 1011 167 l 771 1000 l 618 1000 l 378 167 l 364 167 l 160 1000 z "},"X":{"ha":938,"x_min":0,"x_max":0,"o":"m 68 1000 l 68 979 l 388 514 l 21 21 l 21 0 l 154 0 l 465 426 l 479 426 l 761 0 l 896 0 l 896 21 l 557 514 l 903 979 l 903 1000 l 769 1000 l 479 601 l 465 601 l 201 1000 z "},"Y":{"ha":917,"x_min":0,"x_max":0,"o":"m 14 1000 l 14 979 l 397 374 l 397 0 l 519 0 l 519 374 l 903 979 l 903 1000 l 775 1000 l 465 507 l 451 507 l 142 1000 z "},"Ý":{"ha":917,"x_min":0,"x_max":0,"o":"m 483 1076 l 622 1229 l 622 1250 l 483 1250 l 371 1097 l 371 1076 z m 14 1000 l 14 979 l 397 374 l 397 0 l 519 0 l 519 374 l 903 979 l 903 1000 l 775 1000 l 465 507 l 451 507 l 142 1000 z "},"Ŷ":{"ha":917,"x_min":0,"x_max":0,"o":"m 458 1175 l 563 1076 l 678 1076 l 678 1097 l 525 1250 l 392 1250 l 239 1097 l 239 1076 l 354 1076 z m 775 1000 l 465 507 l 451 507 l 142 1000 l 14 1000 l 14 979 l 397 374 l 397 0 l 519 0 l 519 374 l 903 979 l 903 1000 z "},"Ÿ":{"ha":917,"x_min":0,"x_max":0,"o":"m 243 1229 l 243 1083 l 396 1083 l 396 1229 z m 521 1229 l 521 1083 l 674 1083 l 674 1229 z m 14 1000 l 14 979 l 397 374 l 397 0 l 519 0 l 519 374 l 903 979 l 903 1000 l 775 1000 l 465 507 l 451 507 l 142 1000 z "},"Ỳ":{"ha":917,"x_min":0,"x_max":0,"o":"m 433 1076 l 546 1076 l 546 1097 l 433 1250 l 294 1250 l 294 1229 z m 14 1000 l 14 979 l 397 374 l 397 0 l 519 0 l 519 374 l 903 979 l 903 1000 l 775 1000 l 465 507 l 451 507 l 142 1000 z "},"Z":{"ha":882,"x_min":0,"x_max":0,"o":"m 90 1000 l 90 894 l 644 894 l 63 89 l 63 0 l 826 0 l 826 108 l 217 108 l 799 911 l 799 1000 z "},"Ź":{"ha":882,"x_min":0,"x_max":0,"o":"m 463 1076 l 601 1229 l 601 1250 l 463 1250 l 350 1097 l 350 1076 z m 90 1000 l 90 894 l 644 894 l 63 89 l 63 0 l 826 0 l 826 108 l 217 108 l 799 911 l 799 1000 z "},"Ž":{"ha":882,"x_min":0,"x_max":0,"o":"m 369 1076 l 503 1076 l 656 1229 l 656 1250 l 540 1250 l 436 1151 l 332 1250 l 217 1250 l 217 1229 z m 217 108 l 799 911 l 799 1000 l 90 1000 l 90 894 l 644 894 l 63 89 l 63 0 l 826 0 l 826 108 z "},"Ż":{"ha":882,"x_min":0,"x_max":0,"o":"m 368 1229 l 368 1083 l 521 1083 l 521 1229 z m 90 1000 l 90 894 l 644 894 l 63 89 l 63 0 l 826 0 l 826 108 l 217 108 l 799 911 l 799 1000 z "},"a":{"ha":775,"x_min":0,"x_max":0,"o":"m 81 467 l 192 467 b 382 614 206 564 272 614 b 560 446 486 614 560 564 l 560 415 l 300 390 b 63 179 144 375 63 301 b 304 -17 63 64 161 -17 b 549 104 428 -17 504 33 l 563 104 l 563 0 l 671 0 l 671 453 b 382 711 671 626 549 711 b 81 488 208 711 100 618 z m 176 192 b 317 297 176 257 225 289 l 560 321 l 560 314 b 321 81 560 151 444 81 b 176 192 232 81 176 121 z "},"á":{"ha":775,"x_min":0,"x_max":0,"o":"m 401 799 l 550 979 l 550 1000 l 419 1000 l 294 819 l 294 799 z m 81 467 l 192 467 b 382 614 206 564 272 614 b 560 446 486 614 560 564 l 560 415 l 300 390 b 63 179 144 375 63 301 b 304 -17 63 64 161 -17 b 549 104 428 -17 504 33 l 563 104 l 563 0 l 671 0 l 671 453 b 382 711 671 626 549 711 b 81 488 208 711 100 618 z m 176 192 b 317 297 176 257 225 289 l 560 321 l 560 314 b 321 81 560 151 444 81 b 176 192 232 81 176 121 z "},"ă":{"ha":775,"x_min":0,"x_max":0,"o":"m 381 792 b 585 979 519 792 579 883 l 585 1000 l 490 1000 b 381 883 489 935 461 883 b 271 1000 300 883 272 935 l 176 1000 l 176 979 b 381 792 182 883 242 792 z m 382 711 b 81 488 208 711 100 618 l 81 467 l 192 467 b 382 614 206 564 272 614 b 560 446 486 614 560 564 l 560 415 l 300 390 b 63 179 144 375 63 301 b 304 -17 63 64 161 -17 b 549 104 428 -17 504 33 l 563 104 l 563 0 l 671 0 l 671 453 b 382 711 671 626 549 711 z m 560 314 b 321 81 560 151 444 81 b 176 192 232 81 176 121 b 317 297 176 257 225 289 l 560 321 z "},"â":{"ha":775,"x_min":0,"x_max":0,"o":"m 381 931 l 492 799 l 592 799 l 592 819 l 453 1000 l 308 1000 l 169 819 l 169 799 l 269 799 z m 382 711 b 81 488 208 711 100 618 l 81 467 l 192 467 b 382 614 206 564 272 614 b 560 446 486 614 560 564 l 560 415 l 300 390 b 63 179 144 375 63 301 b 304 -17 63 64 161 -17 b 549 104 428 -17 504 33 l 563 104 l 563 0 l 671 0 l 671 453 b 382 711 671 626 549 711 z m 560 314 b 321 81 560 151 444 81 b 176 192 232 81 176 121 b 317 297 176 257 225 289 l 560 321 z "},"ä":{"ha":775,"x_min":0,"x_max":0,"o":"m 165 972 l 165 826 l 318 826 l 318 972 z m 443 972 l 443 826 l 596 826 l 596 972 z m 81 467 l 192 467 b 382 614 206 564 272 614 b 560 446 486 614 560 564 l 560 415 l 300 390 b 63 179 144 375 63 301 b 304 -17 63 64 161 -17 b 549 104 428 -17 504 33 l 563 104 l 563 0 l 671 0 l 671 453 b 382 711 671 626 549 711 b 81 488 208 711 100 618 z m 176 192 b 317 297 176 257 225 289 l 560 321 l 560 314 b 321 81 560 151 444 81 b 176 192 232 81 176 121 z "},"à":{"ha":775,"x_min":0,"x_max":0,"o":"m 369 799 l 476 799 l 476 819 l 351 1000 l 221 1000 l 221 979 z m 81 467 l 192 467 b 382 614 206 564 272 614 b 560 446 486 614 560 564 l 560 415 l 300 390 b 63 179 144 375 63 301 b 304 -17 63 64 161 -17 b 549 104 428 -17 504 33 l 563 104 l 563 0 l 671 0 l 671 453 b 382 711 671 626 549 711 b 81 488 208 711 100 618 z m 176 192 b 317 297 176 257 225 289 l 560 321 l 560 314 b 321 81 560 151 444 81 b 176 192 232 81 176 121 z "},"ā":{"ha":775,"x_min":0,"x_max":0,"o":"m 186 924 l 186 826 l 575 826 l 575 924 z m 81 467 l 192 467 b 382 614 206 564 272 614 b 560 446 486 614 560 564 l 560 415 l 300 390 b 63 179 144 375 63 301 b 304 -17 63 64 161 -17 b 549 104 428 -17 504 33 l 563 104 l 563 0 l 671 0 l 671 453 b 382 711 671 626 549 711 b 81 488 208 711 100 618 z m 176 192 b 317 297 176 257 225 289 l 560 321 l 560 314 b 321 81 560 151 444 81 b 176 192 232 81 176 121 z "},"ą":{"ha":775,"x_min":0,"x_max":0,"o":"m 671 0 l 671 453 b 382 711 671 626 549 711 b 81 488 208 711 100 618 l 81 467 l 192 467 b 382 614 206 564 272 614 b 560 446 486 614 560 564 l 560 415 l 300 390 b 63 179 144 375 63 301 b 304 -17 63 64 161 -17 b 549 104 428 -17 504 33 l 563 104 l 563 0 b 421 -164 499 -24 421 -64 b 563 -294 421 -246 489 -294 b 671 -264 614 -294 650 -278 l 671 -189 l 650 -189 b 590 -207 635 -197 617 -207 b 524 -142 551 -207 524 -178 b 671 0 524 -85 571 -46 z m 560 314 b 321 81 560 151 444 81 b 176 192 232 81 176 121 b 317 297 176 257 225 289 l 560 321 z "},"å":{"ha":775,"x_min":0,"x_max":0,"o":"m 381 781 b 508 900 456 781 508 832 b 381 1019 508 968 456 1019 b 253 900 306 1019 253 968 b 381 781 253 832 306 781 z m 381 847 b 325 900 346 847 325 869 b 381 953 325 931 346 953 b 436 900 415 953 436 931 b 381 847 436 869 415 847 z m 81 467 l 192 467 b 382 614 206 564 272 614 b 560 446 486 614 560 564 l 560 415 l 300 390 b 63 179 144 375 63 301 b 304 -17 63 64 161 -17 b 549 104 428 -17 504 33 l 563 104 l 563 0 l 671 0 l 671 453 b 382 711 671 626 549 711 b 81 488 208 711 100 618 z m 176 192 b 317 297 176 257 225 289 l 560 321 l 560 314 b 321 81 560 151 444 81 b 176 192 232 81 176 121 z "},"ã":{"ha":775,"x_min":0,"x_max":0,"o":"m 281 868 b 472 788 344 868 375 788 b 633 931 574 788 626 861 l 633 951 l 544 951 b 479 882 540 907 521 882 b 288 963 415 882 385 963 b 126 819 186 963 133 889 l 126 799 l 215 799 b 281 868 219 843 239 868 z m 382 711 b 81 488 208 711 100 618 l 81 467 l 192 467 b 382 614 206 564 272 614 b 560 446 486 614 560 564 l 560 415 l 300 390 b 63 179 144 375 63 301 b 304 -17 63 64 161 -17 b 549 104 428 -17 504 33 l 563 104 l 563 0 l 671 0 l 671 453 b 382 711 671 626 549 711 z m 560 314 b 321 81 560 151 444 81 b 176 192 232 81 176 121 b 317 297 176 257 225 289 l 560 321 z "},"æ":{"ha":1278,"x_min":0,"x_max":0,"o":"m 63 201 b 326 -17 63 76 165 -17 b 607 136 478 -17 563 51 l 621 136 b 900 -17 671 43 763 -17 b 1215 208 1081 -17 1186 86 l 1215 229 l 1104 229 b 900 86 1085 150 1025 86 b 679 317 756 86 681 179 l 1222 317 l 1222 347 b 893 711 1222 563 1101 711 b 639 590 779 711 693 667 l 625 590 b 383 711 582 671 497 711 b 89 488 217 711 111 619 l 89 467 l 200 467 b 383 611 214 568 279 611 b 560 446 488 611 560 564 l 560 413 l 331 413 b 63 201 172 413 63 332 z m 679 411 b 893 611 682 528 757 611 b 1100 411 1029 611 1097 528 z m 176 204 b 331 317 176 269 219 317 l 560 317 b 336 83 560 142 450 83 b 176 204 246 83 176 126 z "},"b":{"ha":838,"x_min":0,"x_max":0,"o":"m 104 1000 l 104 0 l 188 0 l 215 90 l 229 90 b 451 -17 271 32 344 -17 b 782 347 625 -17 782 114 b 458 711 782 581 625 711 b 229 604 344 711 271 664 l 215 604 l 215 1000 z m 210 347 b 439 611 210 514 303 611 b 668 347 575 611 668 514 b 439 83 668 181 575 83 b 210 347 303 83 210 181 z "},"c":{"ha":757,"x_min":0,"x_max":0,"o":"m 56 347 b 406 -17 56 132 190 -17 b 722 215 614 -17 697 101 l 722 236 l 608 236 b 406 86 592 158 544 86 b 169 347 260 86 169 181 b 406 608 169 514 260 608 b 600 465 544 608 585 538 l 714 465 l 714 486 b 407 711 690 599 604 711 b 56 347 190 711 56 563 z "},"ć":{"ha":757,"x_min":0,"x_max":0,"o":"m 426 799 l 575 979 l 575 1000 l 444 1000 l 319 819 l 319 799 z m 56 347 b 406 -17 56 132 190 -17 b 722 215 614 -17 697 101 l 722 236 l 608 236 b 406 86 592 158 544 86 b 169 347 260 86 169 181 b 406 608 169 514 260 608 b 600 465 544 608 585 538 l 714 465 l 714 486 b 407 711 690 599 604 711 b 56 347 190 711 56 563 z "},"č":{"ha":757,"x_min":0,"x_max":0,"o":"m 333 799 l 478 799 l 617 979 l 617 1000 l 517 1000 l 406 868 l 294 1000 l 194 1000 l 194 979 z m 608 236 b 406 86 592 158 544 86 b 169 347 260 86 169 181 b 406 608 169 514 260 608 b 600 465 544 608 585 538 l 714 465 l 714 486 b 407 711 690 599 604 711 b 56 347 190 711 56 563 b 406 -17 56 132 190 -17 b 722 215 614 -17 697 101 l 722 236 z "},"ç":{"ha":757,"x_min":0,"x_max":0,"o":"m 608 236 b 406 86 592 158 544 86 b 169 347 260 86 169 181 b 406 608 169 514 260 608 b 600 465 544 608 585 538 l 714 465 l 714 486 b 407 711 690 599 604 711 b 56 347 190 711 56 563 b 367 -15 56 146 174 3 l 347 -101 l 347 -122 l 431 -122 b 486 -165 468 -122 486 -139 b 419 -215 486 -193 463 -215 b 282 -164 361 -215 315 -185 l 261 -164 l 261 -250 b 426 -292 293 -267 349 -292 b 583 -164 521 -292 583 -240 b 451 -62 583 -92 524 -58 l 431 -64 l 442 -15 b 722 215 624 -3 699 108 l 722 236 z "},"ċ":{"ha":757,"x_min":0,"x_max":0,"o":"m 329 972 l 329 826 l 482 826 l 482 972 z m 56 347 b 406 -17 56 132 190 -17 b 722 215 614 -17 697 101 l 722 236 l 608 236 b 406 86 592 158 544 86 b 169 347 260 86 169 181 b 406 608 169 514 260 608 b 600 465 544 608 585 538 l 714 465 l 714 486 b 407 711 690 599 604 711 b 56 347 190 711 56 563 z "},"d":{"ha":838,"x_min":0,"x_max":0,"o":"m 56 347 b 379 -17 56 114 213 -17 b 611 97 497 -17 571 35 l 625 97 l 625 0 l 733 0 l 733 1000 l 622 1000 l 622 604 l 608 604 b 379 711 567 664 493 711 b 56 347 213 711 56 581 z m 169 347 b 399 611 169 514 263 611 b 628 347 535 611 628 514 b 399 83 628 181 535 83 b 169 347 263 83 169 181 z "},"ð":{"ha":797,"x_min":0,"x_max":0,"o":"m 539 885 l 667 944 l 667 1000 l 646 1000 l 485 924 b 243 1000 415 968 333 993 l 222 1000 l 222 906 b 372 871 272 906 324 893 l 222 800 l 222 744 l 243 744 l 435 835 b 592 597 511 782 572 700 l 578 597 b 390 669 532 643 471 669 b 56 326 196 669 56 528 b 399 -17 56 125 190 -17 b 742 354 607 -17 742 125 b 539 885 742 599 665 778 z m 399 86 b 169 326 260 86 169 174 b 399 567 169 479 260 567 b 628 326 538 567 628 479 b 399 86 628 174 538 86 z "},"ď":{"ha":919,"x_min":0,"x_max":0,"o":"m 56 347 b 379 -17 56 114 213 -17 b 611 97 497 -17 571 35 l 625 97 l 625 0 l 733 0 l 733 1000 l 622 1000 l 622 604 l 608 604 b 379 711 567 664 493 711 b 56 347 213 711 56 581 z m 896 729 l 956 979 l 956 1000 l 832 1000 l 817 750 l 817 729 z m 169 347 b 399 611 169 514 263 611 b 628 347 535 611 628 514 b 399 83 628 181 535 83 b 169 347 263 83 169 181 z "},"đ":{"ha":872,"x_min":0,"x_max":0,"o":"m 858 882 l 733 882 l 733 1000 l 622 1000 l 622 882 l 449 882 l 449 826 l 622 826 l 622 604 l 608 604 b 379 711 567 664 493 711 b 56 347 213 711 56 581 b 379 -17 56 114 213 -17 b 611 97 497 -17 571 35 l 625 97 l 625 0 l 733 0 l 733 826 l 858 826 z m 399 83 b 169 347 263 83 169 181 b 399 611 169 514 263 611 b 628 347 535 611 628 514 b 399 83 628 181 535 83 z "},"e":{"ha":778,"x_min":0,"x_max":0,"o":"m 56 347 b 401 -17 56 133 185 -17 b 715 208 581 -17 686 86 l 715 229 l 604 229 b 399 83 585 150 524 83 b 175 317 260 83 178 182 l 722 317 l 722 375 b 396 711 722 563 611 711 b 56 347 185 711 56 563 z m 175 411 b 396 614 181 528 257 614 b 606 411 532 614 603 524 z "},"é":{"ha":778,"x_min":0,"x_max":0,"o":"m 418 799 l 567 979 l 567 1000 l 436 1000 l 311 819 l 311 799 z m 56 347 b 401 -17 56 133 185 -17 b 715 208 581 -17 686 86 l 715 229 l 604 229 b 399 83 585 150 524 83 b 175 317 260 83 178 182 l 722 317 l 722 375 b 396 711 722 563 611 711 b 56 347 185 711 56 563 z m 175 411 b 396 614 181 528 257 614 b 606 411 532 614 603 524 z "},"ě":{"ha":778,"x_min":0,"x_max":0,"o":"m 325 799 l 469 799 l 608 979 l 608 1000 l 508 1000 l 397 868 l 286 1000 l 186 1000 l 186 979 z m 722 375 b 396 711 722 563 611 711 b 56 347 185 711 56 563 b 401 -17 56 133 185 -17 b 715 208 581 -17 686 86 l 715 229 l 604 229 b 399 83 585 150 524 83 b 175 317 260 83 178 182 l 722 317 z m 175 411 b 396 614 181 528 257 614 b 606 411 532 614 603 524 z "},"ê":{"ha":778,"x_min":0,"x_max":0,"o":"m 397 931 l 508 799 l 608 799 l 608 819 l 469 1000 l 325 1000 l 186 819 l 186 799 l 286 799 z m 722 375 b 396 711 722 563 611 711 b 56 347 185 711 56 563 b 401 -17 56 133 185 -17 b 715 208 581 -17 686 86 l 715 229 l 604 229 b 399 83 585 150 524 83 b 175 317 260 83 178 182 l 722 317 z m 175 411 b 396 614 181 528 257 614 b 606 411 532 614 603 524 z "},"ë":{"ha":778,"x_min":0,"x_max":0,"o":"m 182 972 l 182 826 l 335 826 l 335 972 z m 460 972 l 460 826 l 613 826 l 613 972 z m 56 347 b 401 -17 56 133 185 -17 b 715 208 581 -17 686 86 l 715 229 l 604 229 b 399 83 585 150 524 83 b 175 317 260 83 178 182 l 722 317 l 722 375 b 396 711 722 563 611 711 b 56 347 185 711 56 563 z m 175 411 b 396 614 181 528 257 614 b 606 411 532 614 603 524 z "},"ė":{"ha":778,"x_min":0,"x_max":0,"o":"m 321 972 l 321 826 l 474 826 l 474 972 z m 56 347 b 401 -17 56 133 185 -17 b 715 208 581 -17 686 86 l 715 229 l 604 229 b 399 83 585 150 524 83 b 175 317 260 83 178 182 l 722 317 l 722 375 b 396 711 722 563 611 711 b 56 347 185 711 56 563 z m 175 411 b 396 614 181 528 257 614 b 606 411 532 614 603 524 z "},"è":{"ha":778,"x_min":0,"x_max":0,"o":"m 386 799 l 493 799 l 493 819 l 368 1000 l 238 1000 l 238 979 z m 56 347 b 401 -17 56 133 185 -17 b 715 208 581 -17 686 86 l 715 229 l 604 229 b 399 83 585 150 524 83 b 175 317 260 83 178 182 l 722 317 l 722 375 b 396 711 722 563 611 711 b 56 347 185 711 56 563 z m 175 411 b 396 614 181 528 257 614 b 606 411 532 614 603 524 z "},"ē":{"ha":778,"x_min":0,"x_max":0,"o":"m 203 924 l 203 826 l 592 826 l 592 924 z m 56 347 b 401 -17 56 133 185 -17 b 715 208 581 -17 686 86 l 715 229 l 604 229 b 399 83 585 150 524 83 b 175 317 260 83 178 182 l 722 317 l 722 375 b 396 711 722 563 611 711 b 56 347 185 711 56 563 z m 175 411 b 396 614 181 528 257 614 b 606 411 532 614 603 524 z "},"ę":{"ha":778,"x_min":0,"x_max":0,"o":"m 722 375 b 396 711 722 563 611 711 b 56 347 185 711 56 563 b 401 -17 56 133 185 -17 b 443 -15 415 -17 429 -17 l 443 -28 b 365 -169 400 -62 365 -103 b 504 -294 365 -247 429 -294 b 615 -264 557 -294 594 -278 l 615 -189 l 594 -189 b 533 -207 579 -197 561 -207 b 468 -142 494 -207 468 -178 b 604 42 468 -85 500 -40 b 715 208 663 83 700 143 l 715 229 l 604 229 b 399 83 585 150 524 83 b 175 317 260 83 178 182 l 722 317 z m 175 411 b 396 614 181 528 257 614 b 606 411 532 614 603 524 z "},"f":{"ha":500,"x_min":0,"x_max":0,"o":"m 7 694 l 7 597 l 167 597 l 167 0 l 278 0 l 278 597 l 465 597 l 465 694 l 278 694 l 278 892 l 289 903 l 507 903 l 507 1000 l 340 1000 b 167 825 229 1000 167 936 l 167 694 z "},"g":{"ha":826,"x_min":0,"x_max":0,"o":"m 56 357 b 375 3 56 122 201 3 b 597 111 496 3 563 58 l 611 111 l 611 49 b 385 -194 611 -108 547 -194 b 172 -62 247 -194 197 -129 l 56 -62 l 56 -83 b 385 -294 76 -168 163 -294 b 722 49 622 -294 722 -157 l 722 694 l 639 694 l 611 604 l 597 604 b 375 711 563 657 494 711 b 56 357 201 711 56 592 z m 169 357 b 394 611 169 524 263 611 b 619 357 526 611 619 524 b 394 103 619 190 526 103 b 169 357 263 103 169 190 z "},"ğ":{"ha":826,"x_min":0,"x_max":0,"o":"m 406 792 b 610 979 544 792 604 883 l 610 1000 l 515 1000 b 406 883 514 935 486 883 b 296 1000 325 883 297 935 l 201 1000 l 201 979 b 406 792 207 883 267 792 z m 639 694 l 611 604 l 597 604 b 375 711 563 657 494 711 b 56 357 201 711 56 592 b 375 3 56 122 201 3 b 597 111 496 3 563 58 l 611 111 l 611 49 b 385 -194 611 -108 547 -194 b 172 -62 247 -194 197 -129 l 56 -62 l 56 -83 b 385 -294 76 -168 163 -294 b 722 49 622 -294 722 -157 l 722 694 z m 394 103 b 169 357 263 103 169 190 b 394 611 169 524 263 611 b 619 357 526 611 619 524 b 394 103 619 190 526 103 z "},"ģ":{"ha":826,"x_min":0,"x_max":0,"o":"m 503 972 l 414 972 l 414 990 b 503 1068 414 1049 440 1068 l 531 1068 l 531 1138 l 499 1138 b 336 986 392 1138 336 1092 l 336 819 l 503 819 z m 639 694 l 611 604 l 597 604 b 375 711 563 657 494 711 b 56 357 201 711 56 592 b 375 3 56 122 201 3 b 597 111 496 3 563 58 l 611 111 l 611 49 b 385 -194 611 -108 547 -194 b 172 -62 247 -194 197 -129 l 56 -62 l 56 -83 b 385 -294 76 -168 163 -294 b 722 49 622 -294 722 -157 l 722 694 z m 394 103 b 169 357 263 103 169 190 b 394 611 169 524 263 611 b 619 357 526 611 619 524 b 394 103 619 190 526 103 z "},"ġ":{"ha":826,"x_min":0,"x_max":0,"o":"m 329 972 l 329 826 l 482 826 l 482 972 z m 56 357 b 375 3 56 122 201 3 b 597 111 496 3 563 58 l 611 111 l 611 49 b 385 -194 611 -108 547 -194 b 172 -62 247 -194 197 -129 l 56 -62 l 56 -83 b 385 -294 76 -168 163 -294 b 722 49 622 -294 722 -157 l 722 694 l 639 694 l 611 604 l 597 604 b 375 711 563 657 494 711 b 56 357 201 711 56 592 z m 169 357 b 394 611 169 524 263 611 b 619 357 526 611 619 524 b 394 103 619 190 526 103 b 169 357 263 103 169 190 z "},"h":{"ha":819,"x_min":0,"x_max":0,"o":"m 104 0 l 215 0 l 215 371 b 440 614 215 513 307 614 b 604 449 531 614 604 567 l 604 0 l 715 0 l 715 465 b 463 711 715 625 608 711 b 229 590 356 711 275 675 l 215 590 l 215 1000 l 104 1000 z "},"ħ":{"ha":854,"x_min":0,"x_max":0,"o":"m 497 711 b 264 590 390 711 310 675 l 250 590 l 250 826 l 424 826 l 424 882 l 250 882 l 250 1000 l 139 1000 l 139 882 l 14 882 l 14 826 l 139 826 l 139 0 l 250 0 l 250 371 b 475 614 250 513 342 614 b 639 449 565 614 639 567 l 639 0 l 750 0 l 750 465 b 497 711 750 625 643 711 z "},"i":{"ha":319,"x_min":0,"x_max":0,"o":"m 83 972 l 83 826 l 236 826 l 236 972 z m 104 694 l 104 0 l 215 0 l 215 694 z "},"ı":{"ha":319,"x_min":0,"x_max":0,"o":"m 104 694 l 104 0 l 215 0 l 215 694 z "},"í":{"ha":319,"x_min":0,"x_max":0,"o":"m 181 799 l 329 979 l 329 1000 l 199 1000 l 74 819 l 74 799 z m 104 694 l 104 0 l 215 0 l 215 694 z "},"î":{"ha":319,"x_min":0,"x_max":0,"o":"m 232 1000 l 88 1000 l -51 819 l -51 799 l 49 799 l 160 931 l 271 799 l 371 799 l 371 819 z m 104 0 l 215 0 l 215 694 l 104 694 z "},"ï":{"ha":319,"x_min":0,"x_max":0,"o":"m -56 972 l -56 826 l 97 826 l 97 972 z m 222 972 l 222 826 l 375 826 l 375 972 z m 104 694 l 104 0 l 215 0 l 215 694 z "},"ì":{"ha":319,"x_min":0,"x_max":0,"o":"m 149 799 l 256 799 l 256 819 l 131 1000 l 0 1000 l 0 979 z m 104 694 l 104 0 l 215 0 l 215 694 z "},"ĳ":{"ha":639,"x_min":0,"x_max":0,"o":"m 83 972 l 83 826 l 236 826 l 236 972 z m 403 972 l 403 826 l 556 826 l 556 972 z m 104 694 l 104 0 l 215 0 l 215 694 z m 424 694 l 424 -167 l 413 -178 l 236 -178 l 236 -278 l 361 -278 b 535 -103 472 -278 535 -214 l 535 694 z "},"ī":{"ha":319,"x_min":0,"x_max":0,"o":"m -35 924 l -35 826 l 354 826 l 354 924 z m 104 694 l 104 0 l 215 0 l 215 694 z "},"į":{"ha":319,"x_min":0,"x_max":0,"o":"m 208 972 l 56 972 l 56 826 l 208 826 z m 251 -189 b 193 -207 238 -197 221 -207 b 128 -136 156 -207 128 -178 b 215 0 128 -79 163 -50 l 215 694 l 104 694 l 104 -22 b 25 -167 68 -53 25 -93 b 164 -294 25 -250 96 -294 b 272 -264 215 -294 251 -278 l 272 -189 z "},"j":{"ha":319,"x_min":0,"x_max":0,"o":"m 83 972 l 83 826 l 236 826 l 236 972 z m 104 694 l 104 -167 l 93 -178 l -83 -178 l -83 -278 l 42 -278 b 215 -103 153 -278 215 -214 l 215 694 z "},"ȷ":{"ha":319,"x_min":0,"x_max":0,"o":"m 104 694 l 104 -167 l 93 -178 l -83 -178 l -83 -278 l 42 -278 b 215 -103 153 -278 215 -214 l 215 694 z "},"k":{"ha":772,"x_min":0,"x_max":0,"o":"m 457 435 l 731 674 l 731 694 l 592 694 l 229 372 l 215 372 l 215 1000 l 104 1000 l 104 0 l 215 0 l 215 224 l 374 363 l 618 0 l 738 0 l 738 21 z "},"ķ":{"ha":772,"x_min":0,"x_max":0,"o":"m 457 435 l 731 674 l 731 694 l 592 694 l 229 372 l 215 372 l 215 1000 l 104 1000 l 104 0 l 215 0 l 215 224 l 374 363 l 618 0 l 738 0 l 738 21 z m 317 -236 l 406 -236 l 406 -254 b 317 -332 406 -312 379 -332 l 289 -332 l 289 -401 l 321 -401 b 483 -250 428 -401 483 -356 l 483 -83 l 317 -83 z "},"l":{"ha":319,"x_min":0,"x_max":0,"o":"m 104 1000 l 104 0 l 215 0 l 215 1000 z "},"ĺ":{"ha":319,"x_min":0,"x_max":0,"o":"m 185 1076 l 324 1229 l 324 1250 l 185 1250 l 72 1097 l 72 1076 z m 104 1000 l 104 0 l 215 0 l 215 1000 z "},"ľ":{"ha":401,"x_min":0,"x_max":0,"o":"m 104 1000 l 104 0 l 215 0 l 215 1000 z m 378 729 l 438 979 l 438 1000 l 314 1000 l 299 750 l 299 729 z "},"ļ":{"ha":319,"x_min":0,"x_max":0,"o":"m 215 1000 l 104 1000 l 104 0 l 215 0 z m 76 -83 l 76 -236 l 165 -236 l 165 -254 b 76 -332 165 -312 139 -332 l 49 -332 l 49 -401 l 81 -401 b 243 -250 188 -401 243 -356 l 243 -83 z "},"ŀ":{"ha":528,"x_min":0,"x_max":0,"o":"m 104 1000 l 104 0 l 215 0 l 215 1000 z m 347 449 l 347 303 l 500 303 l 500 449 z "},"ł":{"ha":458,"x_min":0,"x_max":0,"o":"m 424 611 l 403 611 l 278 550 l 278 1000 l 167 1000 l 167 497 l 28 429 l 28 375 l 49 375 l 167 432 l 167 0 l 278 0 l 278 486 l 424 557 z "},"m":{"ha":1236,"x_min":0,"x_max":0,"o":"m 104 694 l 104 0 l 215 0 l 215 375 b 411 614 215 524 292 614 b 563 453 504 614 563 564 l 563 0 l 674 0 l 674 375 b 869 614 674 524 750 614 b 1021 453 963 614 1021 564 l 1021 0 l 1132 0 l 1132 467 b 896 711 1132 640 1018 711 b 665 583 803 711 715 669 l 651 583 b 438 711 613 672 528 711 b 226 597 349 711 274 674 l 213 597 l 213 694 z "},"n":{"ha":819,"x_min":0,"x_max":0,"o":"m 104 694 l 104 0 l 215 0 l 215 371 b 440 614 215 513 307 614 b 604 449 531 614 604 567 l 604 0 l 715 0 l 715 465 b 463 711 715 625 608 711 b 226 583 351 711 275 668 l 213 583 l 213 694 z "},"ń":{"ha":819,"x_min":0,"x_max":0,"o":"m 422 799 l 571 979 l 571 1000 l 440 1000 l 315 819 l 315 799 z m 104 694 l 104 0 l 215 0 l 215 371 b 440 614 215 513 307 614 b 604 449 531 614 604 567 l 604 0 l 715 0 l 715 465 b 463 711 715 625 608 711 b 226 583 351 711 275 668 l 213 583 l 213 694 z "},"ň":{"ha":819,"x_min":0,"x_max":0,"o":"m 329 799 l 474 799 l 613 979 l 613 1000 l 513 1000 l 401 868 l 290 1000 l 190 1000 l 190 979 z m 463 711 b 226 583 351 711 275 668 l 213 583 l 213 694 l 104 694 l 104 0 l 215 0 l 215 371 b 440 614 215 513 307 614 b 604 449 531 614 604 567 l 604 0 l 715 0 l 715 465 b 463 711 715 625 608 711 z "},"ņ":{"ha":819,"x_min":0,"x_max":0,"o":"m 463 711 b 226 583 351 711 275 668 l 213 583 l 213 694 l 104 694 l 104 0 l 215 0 l 215 371 b 440 614 215 513 307 614 b 604 449 531 614 604 567 l 604 0 l 715 0 l 715 465 b 463 711 715 625 608 711 z m 329 -236 l 418 -236 l 418 -254 b 329 -332 418 -312 392 -332 l 301 -332 l 301 -401 l 333 -401 b 496 -250 440 -401 496 -356 l 496 -83 l 329 -83 z "},"ŋ":{"ha":819,"x_min":0,"x_max":0,"o":"m 463 711 b 226 583 351 711 275 668 l 213 583 l 213 694 l 104 694 l 104 0 l 215 0 l 215 371 b 440 614 215 513 307 614 b 604 449 531 614 604 567 l 604 -167 l 593 -178 l 417 -178 l 417 -278 l 542 -278 b 715 -103 653 -278 715 -214 l 715 465 b 463 711 715 625 608 711 z "},"ñ":{"ha":819,"x_min":0,"x_max":0,"o":"m 301 868 b 493 788 365 868 396 788 b 654 931 594 788 647 861 l 654 951 l 565 951 b 500 882 561 907 542 882 b 308 963 436 882 406 963 b 147 819 207 963 154 889 l 147 799 l 236 799 b 301 868 240 843 260 868 z m 463 711 b 226 583 351 711 275 668 l 213 583 l 213 694 l 104 694 l 104 0 l 215 0 l 215 371 b 440 614 215 513 307 614 b 604 449 531 614 604 567 l 604 0 l 715 0 l 715 465 b 463 711 715 625 608 711 z "},"o":{"ha":797,"x_min":0,"x_max":0,"o":"m 56 347 b 399 -17 56 132 190 -17 b 742 347 607 -17 742 132 b 399 711 742 563 607 711 b 56 347 190 711 56 563 z m 169 347 b 399 611 169 514 260 611 b 628 347 538 611 628 514 b 399 83 628 181 538 83 b 169 347 260 83 169 181 z "},"ó":{"ha":797,"x_min":0,"x_max":0,"o":"m 419 799 l 568 979 l 568 1000 l 438 1000 l 313 819 l 313 799 z m 56 347 b 399 -17 56 132 190 -17 b 742 347 607 -17 742 132 b 399 711 742 563 607 711 b 56 347 190 711 56 563 z m 169 347 b 399 611 169 514 260 611 b 628 347 538 611 628 514 b 399 83 628 181 538 83 b 169 347 260 83 169 181 z "},"ô":{"ha":797,"x_min":0,"x_max":0,"o":"m 399 931 l 510 799 l 610 799 l 610 819 l 471 1000 l 326 1000 l 188 819 l 188 799 l 288 799 z m 399 711 b 56 347 190 711 56 563 b 399 -17 56 132 190 -17 b 742 347 607 -17 742 132 b 399 711 742 563 607 711 z m 399 83 b 169 347 260 83 169 181 b 399 611 169 514 260 611 b 628 347 538 611 628 514 b 399 83 628 181 538 83 z "},"ö":{"ha":797,"x_min":0,"x_max":0,"o":"m 183 972 l 183 826 l 336 826 l 336 972 z m 461 972 l 461 826 l 614 826 l 614 972 z m 56 347 b 399 -17 56 132 190 -17 b 742 347 607 -17 742 132 b 399 711 742 563 607 711 b 56 347 190 711 56 563 z m 169 347 b 399 611 169 514 260 611 b 628 347 538 611 628 514 b 399 83 628 181 538 83 b 169 347 260 83 169 181 z "},"ò":{"ha":797,"x_min":0,"x_max":0,"o":"m 388 799 l 494 799 l 494 819 l 369 1000 l 239 1000 l 239 979 z m 56 347 b 399 -17 56 132 190 -17 b 742 347 607 -17 742 132 b 399 711 742 563 607 711 b 56 347 190 711 56 563 z m 169 347 b 399 611 169 514 260 611 b 628 347 538 611 628 514 b 399 83 628 181 538 83 b 169 347 260 83 169 181 z "},"ő":{"ha":797,"x_min":0,"x_max":0,"o":"m 335 799 l 428 979 l 428 1000 l 303 1000 l 233 819 l 233 799 z m 535 799 l 656 979 l 656 1000 l 525 1000 l 428 819 l 428 799 z m 56 347 b 399 -17 56 132 190 -17 b 742 347 607 -17 742 132 b 399 711 742 563 607 711 b 56 347 190 711 56 563 z m 169 347 b 399 611 169 514 260 611 b 628 347 538 611 628 514 b 399 83 628 181 538 83 b 169 347 260 83 169 181 z "},"ō":{"ha":797,"x_min":0,"x_max":0,"o":"m 204 924 l 204 826 l 593 826 l 593 924 z m 56 347 b 399 -17 56 132 190 -17 b 742 347 607 -17 742 132 b 399 711 742 563 607 711 b 56 347 190 711 56 563 z m 169 347 b 399 611 169 514 260 611 b 628 347 538 611 628 514 b 399 83 628 181 538 83 b 169 347 260 83 169 181 z "},"ø":{"ha":797,"x_min":0,"x_max":0,"o":"m 658 599 l 725 674 l 725 694 l 663 694 l 615 640 b 399 711 558 686 485 711 b 56 347 190 711 56 563 b 139 96 56 246 85 160 l 72 21 l 72 0 l 135 0 l 182 54 b 399 -17 239 8 313 -17 b 742 347 607 -17 742 132 b 658 599 742 449 713 535 z m 169 347 b 399 611 169 514 260 611 b 546 561 457 611 507 593 l 211 181 b 169 347 185 222 169 279 z m 399 83 b 251 133 340 83 290 101 l 586 514 b 628 347 613 472 628 415 b 399 83 628 181 538 83 z "},"õ":{"ha":797,"x_min":0,"x_max":0,"o":"m 299 868 b 490 788 363 868 393 788 b 651 931 592 788 644 861 l 651 951 l 563 951 b 497 882 558 907 539 882 b 306 963 433 882 403 963 b 144 819 204 963 151 889 l 144 799 l 233 799 b 299 868 238 843 257 868 z m 399 711 b 56 347 190 711 56 563 b 399 -17 56 132 190 -17 b 742 347 607 -17 742 132 b 399 711 742 563 607 711 z m 399 83 b 169 347 260 83 169 181 b 399 611 169 514 260 611 b 628 347 538 611 628 514 b 399 83 628 181 538 83 z "},"œ":{"ha":1351,"x_min":0,"x_max":0,"o":"m 56 347 b 399 -17 56 132 190 -17 b 678 140 526 -17 624 43 l 692 140 b 976 -17 746 43 844 -17 b 1289 208 1156 -17 1260 86 l 1289 229 l 1178 229 b 974 83 1158 150 1099 83 b 750 317 835 83 756 185 l 1296 317 l 1296 375 b 971 711 1296 563 1186 711 b 692 554 842 711 746 651 l 678 554 b 399 711 624 651 526 711 b 56 347 190 711 56 563 z m 750 411 b 971 614 756 528 832 614 b 1179 411 1108 614 1176 524 z m 169 347 b 399 611 169 514 260 611 b 628 347 538 611 628 514 b 399 83 628 181 538 83 b 169 347 260 83 169 181 z "},"p":{"ha":838,"x_min":0,"x_max":0,"o":"m 104 694 l 104 -278 l 215 -278 l 215 90 l 229 90 b 458 -17 271 31 344 -17 b 782 347 625 -17 782 114 b 458 711 782 581 625 711 b 226 597 340 711 267 660 l 213 597 l 213 694 z m 210 347 b 439 611 210 514 303 611 b 668 347 575 611 668 514 b 439 83 668 181 575 83 b 210 347 303 83 210 181 z "},"þ":{"ha":838,"x_min":0,"x_max":0,"o":"m 104 1000 l 104 -278 l 215 -278 l 215 90 l 229 90 b 458 -17 271 31 344 -17 b 782 347 625 -17 782 114 b 458 711 782 581 625 711 b 229 604 344 711 271 664 l 215 604 l 215 1000 z m 210 347 b 439 611 210 514 303 611 b 668 347 575 611 668 514 b 439 83 668 181 575 83 b 210 347 303 83 210 181 z "},"q":{"ha":838,"x_min":0,"x_max":0,"o":"m 56 347 b 379 -17 56 114 213 -17 b 608 90 493 -17 567 31 l 622 90 l 622 -278 l 733 -278 l 733 694 l 650 694 l 622 604 l 608 604 b 379 711 567 664 493 711 b 56 347 213 711 56 581 z m 169 347 b 399 611 169 514 263 611 b 628 347 535 611 628 514 b 399 83 628 181 535 83 b 169 347 263 83 169 181 z "},"r":{"ha":500,"x_min":0,"x_max":0,"o":"m 104 694 l 104 0 l 215 0 l 215 374 b 411 594 215 499 244 594 l 472 594 l 472 697 l 410 697 b 226 590 303 697 249 653 l 213 590 l 213 694 z "},"ŕ":{"ha":500,"x_min":0,"x_max":0,"o":"m 301 799 l 450 979 l 450 1000 l 319 1000 l 194 819 l 194 799 z m 104 694 l 104 0 l 215 0 l 215 374 b 411 594 215 499 244 594 l 472 594 l 472 697 l 410 697 b 226 590 303 697 249 653 l 213 590 l 213 694 z "},"ř":{"ha":500,"x_min":0,"x_max":0,"o":"m 392 1000 l 281 868 l 169 1000 l 69 1000 l 69 979 l 208 799 l 353 799 l 492 979 l 492 1000 z m 226 590 l 213 590 l 213 694 l 104 694 l 104 0 l 215 0 l 215 374 b 411 594 215 499 244 594 l 472 594 l 472 697 l 410 697 b 226 590 303 697 249 653 z "},"ŗ":{"ha":500,"x_min":0,"x_max":0,"o":"m 410 697 b 226 590 303 697 249 653 l 213 590 l 213 694 l 104 694 l 104 0 l 215 0 l 215 374 b 411 594 215 499 244 594 l 472 594 l 472 697 z m 76 -236 l 165 -236 l 165 -254 b 76 -332 165 -312 139 -332 l 49 -332 l 49 -401 l 81 -401 b 243 -250 188 -401 243 -356 l 243 -83 l 76 -83 z "},"s":{"ha":722,"x_min":0,"x_max":0,"o":"m 83 508 b 267 315 83 392 154 335 l 407 292 b 556 193 482 279 556 267 b 368 81 556 124 490 81 b 153 236 240 81 161 128 l 42 236 l 42 215 b 368 -17 60 72 171 -17 b 667 193 539 -17 667 61 b 451 389 667 311 583 367 l 311 413 b 194 508 244 424 194 440 b 368 614 194 567 256 614 b 550 479 478 614 544 571 l 661 479 l 661 500 b 368 711 644 631 539 711 b 83 508 200 711 83 626 z "},"ś":{"ha":722,"x_min":0,"x_max":0,"o":"m 386 799 l 535 979 l 535 1000 l 404 1000 l 279 819 l 279 799 z m 83 508 b 267 315 83 392 154 335 l 407 292 b 556 193 482 279 556 267 b 368 81 556 124 490 81 b 153 236 240 81 161 128 l 42 236 l 42 215 b 368 -17 60 72 171 -17 b 667 193 539 -17 667 61 b 451 389 667 311 583 367 l 311 413 b 194 508 244 424 194 440 b 368 614 194 567 256 614 b 550 479 478 614 544 571 l 661 479 l 661 500 b 368 711 644 631 539 711 b 83 508 200 711 83 626 z "},"š":{"ha":722,"x_min":0,"x_max":0,"o":"m 293 799 l 438 799 l 576 979 l 576 1000 l 476 1000 l 365 868 l 254 1000 l 154 1000 l 154 979 z m 451 389 l 311 413 b 194 508 244 424 194 440 b 368 614 194 567 256 614 b 550 479 478 614 544 571 l 661 479 l 661 500 b 368 711 644 631 539 711 b 83 508 200 711 83 626 b 267 315 83 392 154 335 l 407 292 b 556 193 482 279 556 267 b 368 81 556 124 490 81 b 153 236 240 81 161 128 l 42 236 l 42 215 b 368 -17 60 72 171 -17 b 667 193 539 -17 667 61 b 451 389 667 311 583 367 z "},"ş":{"ha":722,"x_min":0,"x_max":0,"o":"m 667 193 b 451 389 667 311 583 367 l 311 413 b 194 508 244 424 194 440 b 368 614 194 567 256 614 b 550 479 478 614 544 571 l 661 479 l 661 500 b 368 711 644 631 539 711 b 83 508 200 711 83 626 b 267 315 83 392 154 335 l 407 292 b 556 193 482 279 556 267 b 368 81 556 124 490 81 b 153 236 240 81 161 128 l 42 236 l 42 215 b 329 -15 58 82 156 -4 l 310 -101 l 310 -122 l 393 -122 b 449 -165 431 -122 449 -139 b 382 -215 449 -193 425 -215 b 244 -164 324 -215 278 -185 l 224 -164 l 224 -250 b 389 -292 256 -267 311 -292 b 546 -164 483 -292 546 -240 b 414 -62 546 -92 486 -58 l 393 -64 l 404 -15 b 667 193 557 -6 667 71 z "},"ș":{"ha":722,"x_min":0,"x_max":0,"o":"m 451 389 l 311 413 b 194 508 244 424 194 440 b 368 614 194 567 256 614 b 550 479 478 614 544 571 l 661 479 l 661 500 b 368 711 644 631 539 711 b 83 508 200 711 83 626 b 267 315 83 392 154 335 l 407 292 b 556 193 482 279 556 267 b 368 81 556 124 490 81 b 153 236 240 81 161 128 l 42 236 l 42 215 b 368 -17 60 72 171 -17 b 667 193 539 -17 667 61 b 451 389 667 311 583 367 z m 285 -236 l 374 -236 l 374 -254 b 285 -332 374 -312 347 -332 l 257 -332 l 257 -401 l 289 -401 b 451 -250 396 -401 451 -356 l 451 -83 l 285 -83 z "},"ß":{"ha":840,"x_min":0,"x_max":0,"o":"m 104 0 l 215 0 l 215 653 b 438 919 215 856 333 919 b 581 803 514 919 581 881 b 468 656 581 732 528 697 b 374 518 411 615 374 585 b 492 375 374 453 411 415 l 550 346 b 685 203 611 315 685 286 b 542 81 685 128 625 81 b 399 188 465 81 411 119 l 285 188 l 285 167 b 542 -17 301 64 389 -17 b 799 207 689 -17 799 72 b 597 443 799 343 681 400 l 519 483 b 488 524 499 494 488 504 b 515 565 488 543 497 553 b 694 808 618 636 694 686 b 440 1017 694 940 571 1017 b 104 654 249 1017 104 892 z "},"t":{"ha":535,"x_min":0,"x_max":0,"o":"m 7 694 l 7 597 l 167 597 l 167 174 b 340 0 167 63 229 0 l 500 0 l 500 100 l 289 100 l 278 111 l 278 597 l 472 597 l 472 694 l 278 694 l 278 931 l 257 931 l 167 847 l 167 694 z "},"ŧ":{"ha":535,"x_min":0,"x_max":0,"o":"m 289 100 l 278 111 l 278 325 l 472 325 l 472 381 l 278 381 l 278 597 l 472 597 l 472 694 l 278 694 l 278 931 l 257 931 l 167 847 l 167 694 l 7 694 l 7 597 l 167 597 l 167 381 l 7 381 l 7 325 l 167 325 l 167 174 b 340 0 167 63 229 0 l 500 0 l 500 100 z "},"ť":{"ha":535,"x_min":0,"x_max":0,"o":"m 447 806 l 507 1035 l 507 1056 l 383 1056 l 368 826 l 368 806 z m 7 694 l 7 597 l 167 597 l 167 174 b 340 0 167 63 229 0 l 500 0 l 500 100 l 289 100 l 278 111 l 278 597 l 472 597 l 472 694 l 278 694 l 278 931 l 257 931 l 167 847 l 167 694 z "},"ţ":{"ha":535,"x_min":0,"x_max":0,"o":"m 500 0 l 500 100 l 289 100 l 278 111 l 278 597 l 472 597 l 472 694 l 278 694 l 278 931 l 257 931 l 167 847 l 167 694 l 7 694 l 7 597 l 167 597 l 167 174 b 288 6 167 82 210 22 l 264 -101 l 264 -122 l 347 -122 b 403 -165 385 -122 403 -139 b 336 -215 403 -193 379 -215 b 199 -164 278 -215 232 -185 l 178 -164 l 178 -250 b 343 -292 210 -267 265 -292 b 500 -164 438 -292 500 -240 b 368 -62 500 -92 440 -58 l 347 -64 l 361 0 z "},"ț":{"ha":535,"x_min":0,"x_max":0,"o":"m 289 100 l 278 111 l 278 597 l 472 597 l 472 694 l 278 694 l 278 931 l 257 931 l 167 847 l 167 694 l 7 694 l 7 597 l 167 597 l 167 174 b 340 0 167 63 229 0 l 500 0 l 500 100 z m 233 -236 l 322 -236 l 322 -254 b 233 -332 322 -312 296 -332 l 206 -332 l 206 -401 l 238 -401 b 400 -250 344 -401 400 -356 l 400 -83 l 233 -83 z "},"u":{"ha":819,"x_min":0,"x_max":0,"o":"m 104 694 l 104 229 b 357 -17 104 69 211 -17 b 593 111 472 -17 547 26 l 607 111 l 607 0 l 715 0 l 715 694 l 604 694 l 604 324 b 379 83 604 183 513 83 b 215 246 289 83 215 129 l 215 694 z "},"ú":{"ha":819,"x_min":0,"x_max":0,"o":"m 426 799 l 575 979 l 575 1000 l 444 1000 l 319 819 l 319 799 z m 104 694 l 104 229 b 357 -17 104 69 211 -17 b 593 111 472 -17 547 26 l 607 111 l 607 0 l 715 0 l 715 694 l 604 694 l 604 324 b 379 83 604 183 513 83 b 215 246 289 83 215 129 l 215 694 z "},"û":{"ha":819,"x_min":0,"x_max":0,"o":"m 406 931 l 517 799 l 617 799 l 617 819 l 478 1000 l 333 1000 l 194 819 l 194 799 l 294 799 z m 604 694 l 604 324 b 379 83 604 183 513 83 b 215 246 289 83 215 129 l 215 694 l 104 694 l 104 229 b 357 -17 104 69 211 -17 b 593 111 472 -17 547 26 l 607 111 l 607 0 l 715 0 l 715 694 z "},"ü":{"ha":819,"x_min":0,"x_max":0,"o":"m 190 972 l 190 826 l 343 826 l 343 972 z m 468 972 l 468 826 l 621 826 l 621 972 z m 104 694 l 104 229 b 357 -17 104 69 211 -17 b 593 111 472 -17 547 26 l 607 111 l 607 0 l 715 0 l 715 694 l 604 694 l 604 324 b 379 83 604 183 513 83 b 215 246 289 83 215 129 l 215 694 z "},"ù":{"ha":819,"x_min":0,"x_max":0,"o":"m 394 799 l 501 799 l 501 819 l 376 1000 l 246 1000 l 246 979 z m 104 694 l 104 229 b 357 -17 104 69 211 -17 b 593 111 472 -17 547 26 l 607 111 l 607 0 l 715 0 l 715 694 l 604 694 l 604 324 b 379 83 604 183 513 83 b 215 246 289 83 215 129 l 215 694 z "},"ű":{"ha":819,"x_min":0,"x_max":0,"o":"m 342 799 l 435 979 l 435 1000 l 310 1000 l 240 819 l 240 799 z m 542 799 l 663 979 l 663 1000 l 532 1000 l 435 819 l 435 799 z m 104 694 l 104 229 b 357 -17 104 69 211 -17 b 593 111 472 -17 547 26 l 607 111 l 607 0 l 715 0 l 715 694 l 604 694 l 604 324 b 379 83 604 183 513 83 b 215 246 289 83 215 129 l 215 694 z "},"ū":{"ha":819,"x_min":0,"x_max":0,"o":"m 211 924 l 211 826 l 600 826 l 600 924 z m 104 694 l 104 229 b 357 -17 104 69 211 -17 b 593 111 472 -17 547 26 l 607 111 l 607 0 l 715 0 l 715 694 l 604 694 l 604 324 b 379 83 604 183 513 83 b 215 246 289 83 215 129 l 215 694 z "},"ų":{"ha":819,"x_min":0,"x_max":0,"o":"m 715 0 l 715 694 l 604 694 l 604 324 b 379 83 604 183 513 83 b 215 246 289 83 215 129 l 215 694 l 104 694 l 104 229 b 357 -17 104 69 211 -17 b 593 111 472 -17 547 26 l 607 111 l 607 0 b 465 -164 543 -24 465 -64 b 607 -294 465 -246 533 -294 b 715 -264 658 -294 694 -278 l 715 -189 l 694 -189 b 635 -207 679 -197 661 -207 b 568 -142 596 -207 568 -178 b 715 0 568 -85 615 -46 z "},"ů":{"ha":819,"x_min":0,"x_max":0,"o":"m 406 781 b 533 900 481 781 533 832 b 406 1019 533 968 481 1019 b 278 900 331 1019 278 968 b 406 781 278 832 331 781 z m 406 847 b 350 900 371 847 350 869 b 406 953 350 931 371 953 b 461 900 440 953 461 931 b 406 847 461 869 440 847 z m 104 694 l 104 229 b 357 -17 104 69 211 -17 b 593 111 472 -17 547 26 l 607 111 l 607 0 l 715 0 l 715 694 l 604 694 l 604 324 b 379 83 604 183 513 83 b 215 246 289 83 215 129 l 215 694 z "},"v":{"ha":700,"x_min":0,"x_max":0,"o":"m 21 694 l 21 674 l 290 0 l 410 0 l 679 674 l 679 694 l 565 694 l 357 139 l 343 139 l 135 694 z "},"w":{"ha":1042,"x_min":0,"x_max":0,"o":"m 35 694 l 35 674 l 211 0 l 356 0 l 514 563 l 528 563 l 686 0 l 831 0 l 1007 674 l 1007 694 l 892 694 l 763 139 l 749 139 l 589 694 l 453 694 l 293 139 l 279 139 l 150 694 z "},"ẃ":{"ha":1042,"x_min":0,"x_max":0,"o":"m 542 799 l 690 979 l 690 1000 l 560 1000 l 435 819 l 435 799 z m 35 694 l 35 674 l 211 0 l 356 0 l 514 563 l 528 563 l 686 0 l 831 0 l 1007 674 l 1007 694 l 892 694 l 763 139 l 749 139 l 589 694 l 453 694 l 293 139 l 279 139 l 150 694 z "},"ŵ":{"ha":1042,"x_min":0,"x_max":0,"o":"m 521 931 l 632 799 l 732 799 l 732 819 l 593 1000 l 449 1000 l 310 819 l 310 799 l 410 799 z m 892 694 l 763 139 l 749 139 l 589 694 l 453 694 l 293 139 l 279 139 l 150 694 l 35 694 l 35 674 l 211 0 l 356 0 l 514 563 l 528 563 l 686 0 l 831 0 l 1007 674 l 1007 694 z "},"ẅ":{"ha":1042,"x_min":0,"x_max":0,"o":"m 306 972 l 306 826 l 458 826 l 458 972 z m 583 972 l 583 826 l 736 826 l 736 972 z m 35 694 l 35 674 l 211 0 l 356 0 l 514 563 l 528 563 l 686 0 l 831 0 l 1007 674 l 1007 694 l 892 694 l 763 139 l 749 139 l 589 694 l 453 694 l 293 139 l 279 139 l 150 694 z "},"ẁ":{"ha":1042,"x_min":0,"x_max":0,"o":"m 510 799 l 617 799 l 617 819 l 492 1000 l 361 1000 l 361 979 z m 35 694 l 35 674 l 211 0 l 356 0 l 514 563 l 528 563 l 686 0 l 831 0 l 1007 674 l 1007 694 l 892 694 l 763 139 l 749 139 l 589 694 l 453 694 l 293 139 l 279 139 l 150 694 z "},"x":{"ha":764,"x_min":0,"x_max":0,"o":"m 64 694 l 64 674 l 299 354 l 35 21 l 35 0 l 157 0 l 371 275 l 385 275 l 582 0 l 704 0 l 704 21 l 464 347 l 722 674 l 722 694 l 600 694 l 392 426 l 378 426 l 186 694 z "},"y":{"ha":714,"x_min":0,"x_max":0,"o":"m 21 694 l 21 674 l 299 -32 l 243 -168 l 229 -178 l 65 -178 l 65 -278 l 193 -278 b 361 -165 288 -278 332 -237 l 693 674 l 693 694 l 579 694 l 364 125 l 350 125 l 135 694 z "},"ý":{"ha":714,"x_min":0,"x_max":0,"o":"m 374 799 l 522 979 l 522 1000 l 392 1000 l 267 819 l 267 799 z m 21 694 l 21 674 l 299 -32 l 243 -168 l 229 -178 l 65 -178 l 65 -278 l 193 -278 b 361 -165 288 -278 332 -237 l 693 674 l 693 694 l 579 694 l 364 125 l 350 125 l 135 694 z "},"ŷ":{"ha":714,"x_min":0,"x_max":0,"o":"m 353 931 l 464 799 l 564 799 l 564 819 l 425 1000 l 281 1000 l 142 819 l 142 799 l 242 799 z m 579 694 l 364 125 l 350 125 l 135 694 l 21 694 l 21 674 l 299 -32 l 243 -168 l 229 -178 l 65 -178 l 65 -278 l 193 -278 b 361 -165 288 -278 332 -237 l 693 674 l 693 694 z "},"ÿ":{"ha":714,"x_min":0,"x_max":0,"o":"m 138 972 l 138 826 l 290 826 l 290 972 z m 415 972 l 415 826 l 568 826 l 568 972 z m 21 694 l 21 674 l 299 -32 l 243 -168 l 229 -178 l 65 -178 l 65 -278 l 193 -278 b 361 -165 288 -278 332 -237 l 693 674 l 693 694 l 579 694 l 364 125 l 350 125 l 135 694 z "},"ỳ":{"ha":714,"x_min":0,"x_max":0,"o":"m 342 799 l 449 799 l 449 819 l 324 1000 l 193 1000 l 193 979 z m 21 694 l 21 674 l 299 -32 l 243 -168 l 229 -178 l 65 -178 l 65 -278 l 193 -278 b 361 -165 288 -278 332 -237 l 693 674 l 693 694 l 579 694 l 364 125 l 350 125 l 135 694 z "},"z":{"ha":678,"x_min":0,"x_max":0,"o":"m 69 694 l 69 597 l 471 597 l 56 86 l 56 0 l 622 0 l 622 100 l 200 100 l 615 611 l 615 694 z "},"ź":{"ha":678,"x_min":0,"x_max":0,"o":"m 360 799 l 508 979 l 508 1000 l 378 1000 l 253 819 l 253 799 z m 69 694 l 69 597 l 471 597 l 56 86 l 56 0 l 622 0 l 622 100 l 200 100 l 615 611 l 615 694 z "},"ž":{"ha":678,"x_min":0,"x_max":0,"o":"m 267 799 l 411 799 l 550 979 l 550 1000 l 450 1000 l 339 868 l 228 1000 l 128 1000 l 128 979 z m 200 100 l 615 611 l 615 694 l 69 694 l 69 597 l 471 597 l 56 86 l 56 0 l 622 0 l 622 100 z "},"ż":{"ha":678,"x_min":0,"x_max":0,"o":"m 263 972 l 263 826 l 415 826 l 415 972 z m 69 694 l 69 597 l 471 597 l 56 86 l 56 0 l 622 0 l 622 100 l 200 100 l 615 611 l 615 694 z "},"ẞ":{"ha":917,"x_min":0,"x_max":0,"o":"m 111 0 l 233 0 l 233 647 b 458 894 233 842 338 894 l 640 894 l 465 694 b 396 553 418 642 396 604 b 518 397 396 475 435 438 l 604 356 b 729 219 661 328 729 294 b 581 92 729 136 663 92 b 425 201 488 92 439 136 l 303 201 l 303 181 b 581 -17 321 71 418 -17 b 854 224 751 -17 854 88 b 650 467 854 369 728 429 l 569 506 b 518 561 536 521 518 535 b 542 611 518 581 525 592 l 799 911 l 799 1000 l 458 1000 b 111 647 258 1000 111 885 z "},"ﬁ":{"ha":764,"x_min":0,"x_max":0,"o":"m 7 597 l 167 597 l 167 0 l 278 0 l 278 597 l 549 597 l 549 0 l 660 0 l 660 694 l 278 694 l 278 892 l 289 903 l 563 903 l 563 1000 l 340 1000 b 167 825 229 1000 167 936 l 167 694 l 7 694 z "},"ﬂ":{"ha":778,"x_min":0,"x_max":0,"o":"m 7 597 l 167 597 l 167 0 l 278 0 l 278 597 l 438 597 l 438 694 l 278 694 l 278 892 l 289 903 l 472 903 l 472 1000 l 340 1000 b 167 825 229 1000 167 936 l 167 694 l 7 694 z m 563 0 l 674 0 l 674 1000 l 563 1000 z "},"⁄":{"ha":1167,"x_min":0,"x_max":0,"o":"m 981 1000 l 56 21 l 56 0 l 186 0 l 1111 979 l 1111 1000 z "},".":{"ha":333,"x_min":0,"x_max":0,"o":"m 83 153 l 83 0 l 250 0 l 250 153 z "},",":{"ha":340,"x_min":0,"x_max":0,"o":"m 90 153 l 90 0 l 179 0 l 179 -35 b 90 -118 179 -90 167 -118 l 69 -118 l 69 -187 l 97 -187 b 257 -28 215 -187 257 -139 l 257 153 z "},":":{"ha":333,"x_min":0,"x_max":0,"o":"m 83 694 l 83 542 l 250 542 l 250 694 z m 83 153 l 83 0 l 250 0 l 250 153 z "},";":{"ha":340,"x_min":0,"x_max":0,"o":"m 90 694 l 90 542 l 257 542 l 257 694 z m 90 0 l 179 0 l 179 -35 b 90 -118 179 -90 167 -118 l 69 -118 l 69 -187 l 97 -187 b 257 -28 215 -187 257 -139 l 257 153 l 90 153 z "},"…":{"ha":833,"x_min":0,"x_max":0,"o":"m 83 153 l 83 0 l 250 0 l 250 153 z m 333 153 l 333 0 l 500 0 l 500 153 z m 583 153 l 583 0 l 750 0 l 750 153 z "},"!":{"ha":375,"x_min":0,"x_max":0,"o":"m 129 1000 l 129 694 l 153 264 l 222 264 l 246 694 l 246 1000 z m 104 153 l 104 0 l 271 0 l 271 153 z "},"¡":{"ha":375,"x_min":0,"x_max":0,"o":"m 104 542 l 271 542 l 271 694 l 104 694 z m 129 -278 l 246 -278 l 246 0 l 222 431 l 153 431 l 129 0 z "},"?":{"ha":738,"x_min":0,"x_max":0,"o":"m 153 701 b 378 917 156 864 256 917 b 575 750 500 917 575 847 b 443 564 575 663 532 626 l 406 538 b 315 375 342 493 315 461 l 315 319 l 329 264 l 413 264 l 426 319 l 426 415 l 432 426 l 518 490 b 689 750 610 558 689 613 b 378 1017 689 908 561 1017 b 42 722 189 1017 49 914 l 42 701 z m 288 153 l 288 0 l 454 0 l 454 153 z "},"¿":{"ha":738,"x_min":0,"x_max":0,"o":"m 450 542 l 450 694 l 283 694 l 283 542 z m 585 21 b 360 -194 582 -142 482 -194 b 163 -28 238 -194 163 -125 b 294 158 163 60 206 96 l 332 185 b 422 347 396 229 422 261 l 422 375 l 408 431 l 325 431 l 311 375 l 311 307 l 306 296 l 219 232 b 49 -28 128 164 49 110 b 360 -294 49 -186 176 -294 b 696 0 549 -294 689 -192 l 696 21 z "},"·":{"ha":333,"x_min":0,"x_max":0,"o":"m 83 449 l 83 296 l 250 296 l 250 449 z "},"•":{"ha":858,"x_min":0,"x_max":0,"o":"m 429 -17 b 796 347 644 -17 796 132 b 429 711 796 563 644 711 b 63 347 214 711 63 563 b 429 -17 63 132 214 -17 z "},"*":{"ha":694,"x_min":0,"x_max":0,"o":"m 313 1000 l 313 979 l 331 796 l 318 792 l 242 960 l 232 978 l 171 943 l 182 925 l 289 775 l 281 767 l 131 874 l 113 885 l 78 824 l 96 814 l 264 738 l 260 725 l 76 743 l 56 743 l 56 674 l 76 674 l 260 692 l 264 679 l 96 603 l 78 593 l 113 532 l 131 543 l 282 650 l 290 642 l 182 492 l 171 474 l 232 439 l 242 457 l 318 625 l 331 621 l 313 438 l 313 417 l 382 417 l 382 438 l 364 621 l 376 625 l 453 457 l 463 439 l 524 474 l 513 492 l 406 643 l 414 651 l 564 543 l 582 532 l 617 593 l 599 603 l 431 679 l 435 692 l 618 674 l 639 674 l 639 743 l 618 743 l 435 725 l 431 738 l 599 814 l 617 824 l 582 885 l 564 874 l 414 765 l 404 775 l 513 925 l 524 943 l 463 978 l 453 960 l 376 792 l 364 796 l 382 979 l 382 1000 z "},"#":{"ha":1000,"x_min":0,"x_max":0,"o":"m 944 597 l 944 694 l 751 694 l 833 979 l 833 1000 l 722 1000 l 635 694 l 479 694 l 561 979 l 561 1000 l 450 1000 l 361 694 l 56 694 l 56 597 l 333 597 l 278 403 l 56 403 l 56 306 l 249 306 l 167 21 l 167 0 l 278 0 l 365 306 l 521 306 l 439 21 l 439 0 l 550 0 l 639 306 l 944 306 l 944 403 l 667 403 l 722 597 z m 551 400 l 390 400 l 449 600 l 610 600 z "},"/":{"ha":811,"x_min":0,"x_max":0,"o":"m 639 1000 l 56 21 l 56 0 l 172 0 l 756 979 l 756 1000 z "},"\\":{"ha":811,"x_min":0,"x_max":0,"o":"m 172 1000 l 56 1000 l 56 979 l 639 0 l 756 0 l 756 21 z "},"(":{"ha":469,"x_min":0,"x_max":0,"o":"m 456 1056 l 456 1069 l 339 1069 b 83 396 203 949 83 750 b 339 -278 83 42 203 -157 l 456 -278 l 456 -264 b 200 396 290 -112 200 82 b 456 1056 200 710 290 904 z "},")":{"ha":483,"x_min":0,"x_max":0,"o":"m 144 1069 l 28 1069 l 28 1056 b 283 396 193 904 283 710 b 28 -264 283 82 193 -112 l 28 -278 l 144 -278 b 400 396 281 -157 400 42 b 144 1069 400 750 281 949 z "},"{":{"ha":503,"x_min":0,"x_max":0,"o":"m 42 356 b 197 235 139 356 197 339 l 197 -132 b 357 -278 197 -236 260 -278 l 461 -278 l 461 -192 l 319 -192 l 308 -181 l 308 250 b 199 389 308 322 265 372 l 199 403 b 308 542 265 419 308 469 l 308 972 l 319 983 l 461 983 l 461 1069 l 357 1069 b 197 924 260 1069 197 1028 l 197 557 b 42 436 197 453 139 436 z "},"}":{"ha":503,"x_min":0,"x_max":0,"o":"m 461 356 l 461 436 b 306 557 364 436 306 453 l 306 924 b 146 1069 306 1028 243 1069 l 42 1069 l 42 983 l 183 983 l 194 972 l 194 542 b 304 403 194 469 238 419 l 304 389 b 194 250 238 372 194 322 l 194 -181 l 183 -192 l 42 -192 l 42 -278 l 146 -278 b 306 -132 243 -278 306 -236 l 306 235 b 461 356 306 339 364 356 z "},"[":{"ha":424,"x_min":0,"x_max":0,"o":"m 118 1069 l 118 -278 l 382 -278 l 382 -192 l 229 -192 l 229 983 l 382 983 l 382 1069 z "},"]":{"ha":424,"x_min":0,"x_max":0,"o":"m 306 1069 l 42 1069 l 42 983 l 194 983 l 194 -192 l 42 -192 l 42 -278 l 306 -278 z "},"-":{"ha":528,"x_min":0,"x_max":0,"o":"m 83 393 l 83 296 l 444 296 l 444 393 z "},"–":{"ha":861,"x_min":0,"x_max":0,"o":"m 83 393 l 83 296 l 778 296 l 778 393 z "},"—":{"ha":1250,"x_min":0,"x_max":0,"o":"m 83 393 l 83 296 l 1167 296 l 1167 393 z "},"_":{"ha":778,"x_min":0,"x_max":0,"o":"m 56 -69 l 56 -167 l 722 -167 l 722 -69 z "},"‚":{"ha":340,"x_min":0,"x_max":0,"o":"m 90 153 l 90 0 l 179 0 l 179 -35 b 90 -118 179 -90 167 -118 l 69 -118 l 69 -187 l 97 -187 b 257 -28 215 -187 257 -139 l 257 153 z "},"„":{"ha":576,"x_min":0,"x_max":0,"o":"m 90 0 l 179 0 l 179 -35 b 90 -118 179 -90 167 -118 l 69 -118 l 69 -187 l 97 -187 b 257 -28 215 -187 257 -139 l 257 153 l 90 153 z m 326 153 l 326 0 l 415 0 l 415 -35 b 326 -118 415 -90 403 -118 l 306 -118 l 306 -187 l 333 -187 b 493 -28 451 -187 493 -139 l 493 153 z "},"“":{"ha":576,"x_min":0,"x_max":0,"o":"m 83 958 l 83 778 l 250 778 l 250 931 l 161 931 l 161 965 b 250 1049 161 1021 174 1049 l 271 1049 l 271 1118 l 243 1118 b 83 958 125 1118 83 1069 z m 479 1118 b 319 958 361 1118 319 1069 l 319 778 l 486 778 l 486 931 l 397 931 l 397 965 b 486 1049 397 1021 410 1049 l 507 1049 l 507 1118 z "},"”":{"ha":576,"x_min":0,"x_max":0,"o":"m 90 847 l 179 847 l 179 813 b 90 729 179 757 167 729 l 69 729 l 69 660 l 97 660 b 257 819 215 660 257 708 l 257 1000 l 90 1000 z m 326 1000 l 326 847 l 415 847 l 415 813 b 326 729 415 757 403 729 l 306 729 l 306 660 l 333 660 b 493 819 451 660 493 708 l 493 1000 z "},"‘":{"ha":340,"x_min":0,"x_max":0,"o":"m 243 1118 b 83 958 125 1118 83 1069 l 83 778 l 250 778 l 250 931 l 161 931 l 161 965 b 250 1049 161 1021 174 1049 l 271 1049 l 271 1118 z "},"’":{"ha":340,"x_min":0,"x_max":0,"o":"m 90 1000 l 90 847 l 179 847 l 179 813 b 90 729 179 757 167 729 l 69 729 l 69 660 l 97 660 b 257 819 215 660 257 708 l 257 1000 z "},"«":{"ha":607,"x_min":0,"x_max":0,"o":"m 224 118 l 329 118 l 329 139 l 150 350 l 329 561 l 329 582 l 224 582 l 35 360 l 35 340 z m 432 118 l 538 118 l 538 139 l 358 350 l 538 561 l 538 582 l 432 582 l 243 360 l 243 340 z "},"»":{"ha":607,"x_min":0,"x_max":0,"o":"m 175 118 l 364 340 l 364 360 l 175 582 l 69 582 l 69 561 l 249 350 l 69 139 l 69 118 z m 383 118 l 572 340 l 572 360 l 383 582 l 278 582 l 278 561 l 457 350 l 278 139 l 278 118 z "},"‹":{"ha":399,"x_min":0,"x_max":0,"o":"m 224 118 l 329 118 l 329 139 l 150 350 l 329 561 l 329 582 l 224 582 l 35 360 l 35 340 z "},"›":{"ha":399,"x_min":0,"x_max":0,"o":"m 175 118 l 364 340 l 364 360 l 175 582 l 69 582 l 69 561 l 249 350 l 69 139 l 69 118 z "},"\"":{"ha":576,"x_min":0,"x_max":0,"o":"m 90 847 l 179 847 l 179 813 b 90 729 179 757 167 729 l 69 729 l 69 660 l 97 660 b 257 819 215 660 257 708 l 257 1000 l 90 1000 z m 326 1000 l 326 847 l 415 847 l 415 813 b 326 729 415 757 403 729 l 306 729 l 306 660 l 333 660 b 493 819 451 660 493 708 l 493 1000 z "},"'":{"ha":340,"x_min":0,"x_max":0,"o":"m 90 1000 l 90 847 l 179 847 l 179 813 b 90 729 179 757 167 729 l 69 729 l 69 660 l 97 660 b 257 819 215 660 257 708 l 257 1000 z "},"₿":{"ha":951,"x_min":0,"x_max":0,"o":"m 882 271 b 708 511 882 400 810 476 l 708 525 b 868 750 803 558 868 632 b 621 997 868 903 761 983 l 621 1153 l 510 1153 l 510 1000 l 426 1000 l 426 1153 l 315 1153 l 315 1000 l 118 1000 l 118 0 l 315 0 l 315 -160 l 426 -160 l 426 0 l 510 0 l 510 -160 l 621 -160 l 621 4 b 882 271 767 22 882 108 z m 240 894 l 557 894 b 746 731 671 894 746 849 b 557 567 746 613 671 567 l 240 567 z m 546 108 l 240 108 l 240 461 l 546 461 b 757 285 669 461 757 410 b 546 108 757 160 669 108 z "},"¢":{"ha":757,"x_min":0,"x_max":0,"o":"m 608 236 b 406 86 592 158 544 86 b 169 347 260 86 169 181 b 406 608 169 514 260 608 b 600 465 544 608 585 538 l 714 465 l 714 486 b 461 708 693 588 621 689 l 461 840 l 350 840 l 350 707 b 56 347 167 683 56 543 b 350 -12 56 151 167 10 l 350 -153 l 461 -153 l 461 -14 b 722 215 629 6 700 113 l 722 236 z "},"¤":{"ha":928,"x_min":0,"x_max":0,"o":"m 831 347 b 753 568 831 431 801 507 l 886 700 l 813 774 l 678 640 b 464 711 617 685 542 711 b 250 640 386 711 311 685 l 115 774 l 42 700 l 175 568 b 97 347 126 507 97 431 b 175 126 97 264 126 188 l 42 -6 l 115 -79 l 250 54 b 464 -17 311 10 386 -17 b 678 54 542 -17 617 10 l 813 -79 l 886 -6 l 753 126 b 831 347 801 188 831 264 z m 464 92 b 211 347 311 92 211 194 b 464 603 211 500 311 603 b 717 347 617 603 717 500 b 464 92 717 194 617 92 z "},"$":{"ha":950,"x_min":0,"x_max":0,"o":"m 867 286 b 550 556 867 465 714 526 l 428 578 b 211 740 289 603 211 633 b 468 914 211 850 324 914 b 729 701 617 914 722 856 l 854 701 l 854 722 b 524 1014 836 893 717 997 l 524 1153 l 413 1153 l 413 1014 b 89 736 214 999 89 892 b 369 469 89 576 203 500 l 492 447 b 744 274 639 421 744 393 b 471 92 744 150 624 92 b 169 326 315 92 186 153 l 42 326 l 42 306 b 413 -15 63 113 201 1 l 413 -160 l 524 -160 l 524 -14 b 867 286 728 3 867 113 z "},"€":{"ha":1129,"x_min":0,"x_max":0,"o":"m 946 326 b 644 92 917 199 840 92 b 296 361 465 92 339 193 l 588 361 l 601 438 l 601 458 l 281 458 b 279 500 279 472 279 486 b 282 556 279 519 281 538 l 622 556 l 636 632 l 636 653 l 300 653 b 644 911 346 814 471 911 b 932 681 819 911 913 808 l 1057 681 l 1057 701 b 649 1017 1032 851 906 1017 b 174 653 415 1017 231 885 l 49 653 l 35 576 l 35 556 l 160 556 b 157 500 158 538 157 519 b 158 458 157 486 157 472 l 14 458 l 0 382 l 0 361 l 171 361 b 649 -17 222 121 411 -17 b 1074 306 906 -17 1039 143 l 1074 326 z "},"ƒ":{"ha":622,"x_min":0,"x_max":0,"o":"m 425 892 l 622 892 l 622 1000 l 451 1000 b 288 839 347 1000 297 943 l 274 694 l 75 694 l 75 586 l 264 586 l 194 -158 l 183 -169 l -14 -169 l -14 -278 l 157 -278 b 321 -122 261 -278 311 -226 l 386 586 l 589 586 l 589 694 l 397 694 l 414 881 z "},"£":{"ha":833,"x_min":0,"x_max":0,"o":"m 317 439 l 504 439 l 504 536 l 299 536 l 282 624 b 474 911 246 819 339 911 b 669 715 594 911 667 842 l 792 715 b 476 1017 786 917 654 1017 b 160 618 282 1017 108 892 l 175 536 l 69 536 l 69 439 l 193 439 b 97 92 224 279 215 182 l 97 0 l 786 0 l 786 108 l 242 108 b 317 439 332 182 347 276 z "},"¥":{"ha":922,"x_min":0,"x_max":0,"o":"m 908 1000 l 781 1000 l 468 507 l 454 507 l 142 1000 l 14 1000 l 14 979 l 356 443 l 156 443 l 156 388 l 400 388 l 400 290 l 156 290 l 156 235 l 400 235 l 400 0 l 522 0 l 522 235 l 767 235 l 767 290 l 522 290 l 522 388 l 767 388 l 767 443 l 567 443 l 908 979 z "},"+":{"ha":889,"x_min":0,"x_max":0,"o":"m 764 410 l 500 410 l 500 674 l 389 674 l 389 410 l 125 410 l 125 299 l 389 299 l 389 35 l 500 35 l 500 299 l 764 299 z "},"−":{"ha":889,"x_min":0,"x_max":0,"o":"m 125 410 l 125 299 l 764 299 l 764 410 z "},"×":{"ha":889,"x_min":0,"x_max":0,"o":"m 750 586 l 676 660 l 444 428 l 213 660 l 139 586 l 371 354 l 139 122 l 213 49 l 444 281 l 676 49 l 750 122 l 518 354 z "},"÷":{"ha":889,"x_min":0,"x_max":0,"o":"m 361 674 l 361 521 l 528 521 l 528 674 z m 125 410 l 125 299 l 764 299 l 764 410 z m 361 188 l 361 35 l 528 35 l 528 188 z "},"=":{"ha":889,"x_min":0,"x_max":0,"o":"m 125 521 l 125 410 l 764 410 l 764 521 z m 125 299 l 125 188 l 764 188 l 764 299 z "},"≠":{"ha":889,"x_min":0,"x_max":0,"o":"m 764 410 l 764 521 l 588 521 l 694 688 l 694 708 l 636 708 l 515 521 l 125 521 l 125 410 l 444 410 l 372 299 l 125 299 l 125 188 l 301 188 l 194 21 l 194 0 l 253 0 l 374 188 l 764 188 l 764 299 l 444 299 l 517 410 z "},">":{"ha":889,"x_min":0,"x_max":0,"o":"m 132 76 l 153 76 l 771 307 l 771 401 l 153 632 l 132 632 l 132 524 l 590 361 l 590 347 l 132 185 z "},"<":{"ha":889,"x_min":0,"x_max":0,"o":"m 757 76 l 757 185 l 299 347 l 299 361 l 757 524 l 757 632 l 736 632 l 118 401 l 118 307 l 736 76 z "},"≥":{"ha":889,"x_min":0,"x_max":0,"o":"m 132 229 l 153 229 l 771 460 l 771 554 l 153 785 l 132 785 l 132 676 l 590 514 l 590 500 l 132 338 z m 132 111 l 132 0 l 771 0 l 771 111 z "},"≤":{"ha":889,"x_min":0,"x_max":0,"o":"m 757 229 l 757 338 l 299 500 l 299 514 l 757 676 l 757 785 l 736 785 l 118 554 l 118 460 l 736 229 z m 757 111 l 118 111 l 118 0 l 757 0 z "},"±":{"ha":889,"x_min":0,"x_max":0,"o":"m 500 576 l 500 826 l 389 826 l 389 576 l 125 576 l 125 465 l 390 465 l 390 215 l 500 215 l 500 465 l 764 465 l 764 576 z m 125 0 l 764 0 l 764 111 l 125 111 z "},"≈":{"ha":889,"x_min":0,"x_max":0,"o":"m 764 556 l 764 576 l 664 576 b 576 479 661 518 635 479 b 319 590 486 479 446 590 b 125 403 208 590 135 525 l 125 382 l 225 382 b 313 479 228 440 254 479 b 569 368 403 479 443 368 b 764 556 681 368 754 433 z m 764 306 l 764 326 l 664 326 b 576 229 661 268 635 229 b 319 340 486 229 446 340 b 125 153 208 340 135 275 l 125 132 l 225 132 b 313 229 228 190 254 229 b 569 118 403 229 443 118 b 764 306 681 118 754 183 z "},"~":{"ha":889,"x_min":0,"x_max":0,"o":"m 764 431 l 764 451 l 664 451 b 576 354 661 393 635 354 b 319 465 486 354 446 465 b 125 278 208 465 135 400 l 125 257 l 225 257 b 313 354 228 315 254 354 b 569 243 403 354 443 243 b 764 431 681 243 754 308 z "},"^":{"ha":722,"x_min":0,"x_max":0,"o":"m 653 528 l 653 549 l 406 1000 l 317 1000 l 69 549 l 69 528 l 186 528 l 354 850 l 368 850 l 536 528 z "},"∅":{"ha":875,"x_min":0,"x_max":0,"o":"m 861 694 l 785 771 l 651 638 b 438 711 589 683 514 711 b 71 347 238 711 71 556 b 147 133 71 268 100 193 l 14 0 l 90 -76 l 224 57 b 438 -17 286 11 361 -17 b 804 347 638 -17 804 139 b 728 561 804 426 775 501 z m 185 347 b 438 606 185 500 285 606 b 575 561 488 606 535 589 l 225 211 b 185 347 200 251 185 299 z m 690 347 b 438 89 690 194 590 89 b 300 133 388 89 340 106 l 650 483 b 690 347 675 443 690 396 z "},"%":{"ha":1319,"x_min":0,"x_max":0,"o":"m 342 567 b 572 792 471 567 572 664 b 342 1017 572 921 471 1017 b 111 792 213 1017 111 921 b 342 567 111 664 213 567 z m 1050 1000 l 125 21 l 125 0 l 256 0 l 1181 979 l 1181 1000 z m 342 664 b 214 792 265 664 214 717 b 342 919 214 868 265 919 b 469 792 418 919 469 868 b 342 664 469 717 418 664 z m 978 -17 b 1208 208 1107 -17 1208 81 b 978 433 1208 338 1107 433 b 747 208 849 433 747 338 b 978 -17 747 81 849 -17 z m 978 81 b 850 208 901 81 850 133 b 978 336 850 285 901 336 b 1106 208 1054 336 1106 285 b 978 81 1106 133 1054 81 z "},"‰":{"ha":1692,"x_min":0,"x_max":0,"o":"m 111 792 b 342 567 111 664 213 567 b 572 792 471 567 572 664 b 342 1017 572 921 471 1017 b 111 792 213 1017 111 921 z m 125 0 l 256 0 l 1181 979 l 1181 1000 l 1050 1000 l 125 21 z m 214 792 b 342 919 214 868 265 919 b 469 792 418 919 469 868 b 342 664 469 717 418 664 b 214 792 265 664 214 717 z m 747 208 b 975 -17 747 81 847 -17 b 1157 72 1050 -17 1115 18 l 1171 72 b 1353 -17 1213 18 1278 -17 b 1581 208 1481 -17 1581 81 b 1353 433 1581 338 1481 433 b 1171 346 1278 433 1211 400 l 1157 346 b 975 433 1117 400 1050 433 b 747 208 847 433 747 338 z m 850 208 b 978 336 850 285 901 336 b 1106 208 1054 336 1106 285 b 978 81 1106 133 1054 81 b 850 208 901 81 850 133 z m 1222 208 b 1350 336 1222 285 1274 336 b 1478 208 1426 336 1478 285 b 1350 81 1478 133 1426 81 b 1222 208 1274 81 1222 133 z "},"↑":{"ha":944,"x_min":0,"x_max":0,"o":"m 42 593 l 111 524 l 418 831 l 418 0 l 529 0 l 529 828 l 833 524 l 903 593 l 479 1017 l 465 1017 z "},"↗":{"ha":894,"x_min":0,"x_max":0,"o":"m 42 22 l 121 -56 l 692 515 l 692 83 l 790 83 l 790 685 l 781 694 l 179 694 l 179 596 l 615 596 z "},"→":{"ha":1111,"x_min":0,"x_max":0,"o":"m 56 290 l 881 290 l 576 -14 l 646 -83 l 1069 340 l 1069 354 l 646 778 l 576 708 l 883 401 l 56 401 z "},"↘":{"ha":894,"x_min":0,"x_max":0,"o":"m 42 672 l 615 99 l 179 99 l 179 0 l 781 0 l 790 10 l 790 611 l 692 611 l 692 179 l 121 750 z "},"↓":{"ha":944,"x_min":0,"x_max":0,"o":"m 42 407 l 465 -17 l 479 -17 l 903 407 l 833 476 l 529 172 l 529 1000 l 418 1000 l 418 169 l 111 476 z "},"↙":{"ha":894,"x_min":0,"x_max":0,"o":"m 853 672 l 774 750 l 203 179 l 203 611 l 104 611 l 104 10 l 114 0 l 715 0 l 715 99 l 279 99 z "},"←":{"ha":1111,"x_min":0,"x_max":0,"o":"m 1056 290 l 1056 401 l 228 401 l 535 708 l 465 778 l 42 354 l 42 340 l 465 -83 l 535 -14 l 231 290 z "},"↖":{"ha":894,"x_min":0,"x_max":0,"o":"m 853 22 l 279 596 l 715 596 l 715 694 l 114 694 l 104 685 l 104 83 l 203 83 l 203 515 l 774 -56 z "},"↔":{"ha":1214,"x_min":0,"x_max":0,"o":"m 42 340 l 465 -83 l 535 -14 l 231 290 l 983 290 l 679 -14 l 749 -83 l 1172 340 l 1172 354 l 749 778 l 679 708 l 986 401 l 228 401 l 535 708 l 465 778 l 42 354 z "},"↕":{"ha":889,"x_min":0,"x_max":0,"o":"m 42 365 l 438 -17 l 451 -17 l 847 365 l 778 435 l 501 172 l 501 828 l 778 565 l 847 635 l 451 1017 l 438 1017 l 42 635 l 111 565 l 390 831 l 390 169 l 111 435 z "},"█":{"ha":889,"x_min":0,"x_max":0,"o":"m 111 996 l 111 4 l 115 0 l 774 0 l 778 4 l 778 996 l 774 1000 l 115 1000 z "},"▒":{"ha":889,"x_min":0,"x_max":0,"o":"m 111 996 l 111 949 l 115 944 l 163 944 l 167 949 l 167 996 l 163 1000 l 115 1000 z m 222 996 l 222 949 l 226 944 l 274 944 l 278 949 l 278 996 l 274 1000 l 226 1000 z m 333 996 l 333 949 l 338 944 l 385 944 l 389 949 l 389 996 l 385 1000 l 338 1000 z m 444 996 l 444 949 l 449 944 l 496 944 l 500 949 l 500 996 l 496 1000 l 449 1000 z m 556 996 l 556 949 l 560 944 l 607 944 l 611 949 l 611 996 l 607 1000 l 560 1000 z m 667 996 l 667 949 l 671 944 l 718 944 l 722 949 l 722 996 l 718 1000 l 671 1000 z m 167 940 l 167 893 l 171 889 l 218 889 l 222 893 l 222 940 l 218 944 l 171 944 z m 278 940 l 278 893 l 282 889 l 329 889 l 333 893 l 333 940 l 329 944 l 282 944 z m 389 940 l 389 893 l 393 889 l 440 889 l 444 893 l 444 940 l 440 944 l 393 944 z m 500 940 l 500 893 l 504 889 l 551 889 l 556 893 l 556 940 l 551 944 l 504 944 z m 611 940 l 611 893 l 615 889 l 663 889 l 667 893 l 667 940 l 663 944 l 615 944 z m 722 940 l 722 893 l 726 889 l 774 889 l 778 893 l 778 940 l 774 944 l 726 944 z m 111 885 l 111 838 l 115 833 l 163 833 l 167 838 l 167 885 l 163 889 l 115 889 z m 222 885 l 222 838 l 226 833 l 274 833 l 278 838 l 278 885 l 274 889 l 226 889 z m 333 885 l 333 838 l 338 833 l 385 833 l 389 838 l 389 885 l 385 889 l 338 889 z m 444 885 l 444 838 l 449 833 l 496 833 l 500 838 l 500 885 l 496 889 l 449 889 z m 556 885 l 556 838 l 560 833 l 607 833 l 611 838 l 611 885 l 607 889 l 560 889 z m 667 885 l 667 838 l 671 833 l 718 833 l 722 838 l 722 885 l 718 889 l 671 889 z m 167 829 l 167 782 l 171 778 l 218 778 l 222 782 l 222 829 l 218 833 l 171 833 z m 278 829 l 278 782 l 282 778 l 329 778 l 333 782 l 333 829 l 329 833 l 282 833 z m 389 829 l 389 782 l 393 778 l 440 778 l 444 782 l 444 829 l 440 833 l 393 833 z m 500 829 l 500 782 l 504 778 l 551 778 l 556 782 l 556 829 l 551 833 l 504 833 z m 611 829 l 611 782 l 615 778 l 663 778 l 667 782 l 667 829 l 663 833 l 615 833 z m 722 829 l 722 782 l 726 778 l 774 778 l 778 782 l 778 829 l 774 833 l 726 833 z m 111 774 l 111 726 l 115 722 l 163 722 l 167 726 l 167 774 l 163 778 l 115 778 z m 222 774 l 222 726 l 226 722 l 274 722 l 278 726 l 278 774 l 274 778 l 226 778 z m 333 774 l 333 726 l 338 722 l 385 722 l 389 726 l 389 774 l 385 778 l 338 778 z m 444 774 l 444 726 l 449 722 l 496 722 l 500 726 l 500 774 l 496 778 l 449 778 z m 556 774 l 556 726 l 560 722 l 607 722 l 611 726 l 611 774 l 607 778 l 560 778 z m 667 774 l 667 726 l 671 722 l 718 722 l 722 726 l 722 774 l 718 778 l 671 778 z m 167 718 l 167 671 l 171 667 l 218 667 l 222 671 l 222 718 l 218 722 l 171 722 z m 278 718 l 278 671 l 282 667 l 329 667 l 333 671 l 333 718 l 329 722 l 282 722 z m 389 718 l 389 671 l 393 667 l 440 667 l 444 671 l 444 718 l 440 722 l 393 722 z m 500 718 l 500 671 l 504 667 l 551 667 l 556 671 l 556 718 l 551 722 l 504 722 z m 611 718 l 611 671 l 615 667 l 663 667 l 667 671 l 667 718 l 663 722 l 615 722 z m 722 718 l 722 671 l 726 667 l 774 667 l 778 671 l 778 718 l 774 722 l 726 722 z m 111 663 l 111 615 l 115 611 l 163 611 l 167 615 l 167 663 l 163 667 l 115 667 z m 222 663 l 222 615 l 226 611 l 274 611 l 278 615 l 278 663 l 274 667 l 226 667 z m 333 663 l 333 615 l 338 611 l 385 611 l 389 615 l 389 663 l 385 667 l 338 667 z m 444 663 l 444 615 l 449 611 l 496 611 l 500 615 l 500 663 l 496 667 l 449 667 z m 556 663 l 556 615 l 560 611 l 607 611 l 611 615 l 611 663 l 607 667 l 560 667 z m 667 663 l 667 615 l 671 611 l 718 611 l 722 615 l 722 663 l 718 667 l 671 667 z m 167 607 l 167 560 l 171 556 l 218 556 l 222 560 l 222 607 l 218 611 l 171 611 z m 278 607 l 278 560 l 282 556 l 329 556 l 333 560 l 333 607 l 329 611 l 282 611 z m 389 607 l 389 560 l 393 556 l 440 556 l 444 560 l 444 607 l 440 611 l 393 611 z m 500 607 l 500 560 l 504 556 l 551 556 l 556 560 l 556 607 l 551 611 l 504 611 z m 611 607 l 611 560 l 615 556 l 663 556 l 667 560 l 667 607 l 663 611 l 615 611 z m 722 607 l 722 560 l 726 556 l 774 556 l 778 560 l 778 607 l 774 611 l 726 611 z m 111 551 l 111 504 l 115 500 l 163 500 l 167 504 l 167 551 l 163 556 l 115 556 z m 222 551 l 222 504 l 226 500 l 274 500 l 278 504 l 278 551 l 274 556 l 226 556 z m 333 551 l 333 504 l 338 500 l 385 500 l 389 504 l 389 551 l 385 556 l 338 556 z m 444 551 l 444 504 l 449 500 l 496 500 l 500 504 l 500 551 l 496 556 l 449 556 z m 556 551 l 556 504 l 560 500 l 607 500 l 611 504 l 611 551 l 607 556 l 560 556 z m 667 551 l 667 504 l 671 500 l 718 500 l 722 504 l 722 551 l 718 556 l 671 556 z m 167 496 l 167 449 l 171 444 l 218 444 l 222 449 l 222 496 l 218 500 l 171 500 z m 278 496 l 278 449 l 282 444 l 329 444 l 333 449 l 333 496 l 329 500 l 282 500 z m 389 496 l 389 449 l 393 444 l 440 444 l 444 449 l 444 496 l 440 500 l 393 500 z m 500 496 l 500 449 l 504 444 l 551 444 l 556 449 l 556 496 l 551 500 l 504 500 z m 611 496 l 611 449 l 615 444 l 663 444 l 667 449 l 667 496 l 663 500 l 615 500 z m 722 496 l 722 449 l 726 444 l 774 444 l 778 449 l 778 496 l 774 500 l 726 500 z m 111 440 l 111 393 l 115 389 l 163 389 l 167 393 l 167 440 l 163 444 l 115 444 z m 222 440 l 222 393 l 226 389 l 274 389 l 278 393 l 278 440 l 274 444 l 226 444 z m 333 440 l 333 393 l 338 389 l 385 389 l 389 393 l 389 440 l 385 444 l 338 444 z m 444 440 l 444 393 l 449 389 l 496 389 l 500 393 l 500 440 l 496 444 l 449 444 z m 556 440 l 556 393 l 560 389 l 607 389 l 611 393 l 611 440 l 607 444 l 560 444 z m 667 440 l 667 393 l 671 389 l 718 389 l 722 393 l 722 440 l 718 444 l 671 444 z m 167 385 l 167 338 l 171 333 l 218 333 l 222 338 l 222 385 l 218 389 l 171 389 z m 278 385 l 278 338 l 282 333 l 329 333 l 333 338 l 333 385 l 329 389 l 282 389 z m 389 385 l 389 338 l 393 333 l 440 333 l 444 338 l 444 385 l 440 389 l 393 389 z m 500 385 l 500 338 l 504 333 l 551 333 l 556 338 l 556 385 l 551 389 l 504 389 z m 611 385 l 611 338 l 615 333 l 663 333 l 667 338 l 667 385 l 663 389 l 615 389 z m 722 385 l 722 338 l 726 333 l 774 333 l 778 338 l 778 385 l 774 389 l 726 389 z m 111 329 l 111 282 l 115 278 l 163 278 l 167 282 l 167 329 l 163 333 l 115 333 z m 222 329 l 222 282 l 226 278 l 274 278 l 278 282 l 278 329 l 274 333 l 226 333 z m 333 329 l 333 282 l 338 278 l 385 278 l 389 282 l 389 329 l 385 333 l 338 333 z m 444 329 l 444 282 l 449 278 l 496 278 l 500 282 l 500 329 l 496 333 l 449 333 z m 556 329 l 556 282 l 560 278 l 607 278 l 611 282 l 611 329 l 607 333 l 560 333 z m 667 329 l 667 282 l 671 278 l 718 278 l 722 282 l 722 329 l 718 333 l 671 333 z m 167 274 l 167 226 l 171 222 l 218 222 l 222 226 l 222 274 l 218 278 l 171 278 z m 278 274 l 278 226 l 282 222 l 329 222 l 333 226 l 333 274 l 329 278 l 282 278 z m 389 274 l 389 226 l 393 222 l 440 222 l 444 226 l 444 274 l 440 278 l 393 278 z m 500 274 l 500 226 l 504 222 l 551 222 l 556 226 l 556 274 l 551 278 l 504 278 z m 611 274 l 611 226 l 615 222 l 663 222 l 667 226 l 667 274 l 663 278 l 615 278 z m 722 274 l 722 226 l 726 222 l 774 222 l 778 226 l 778 274 l 774 278 l 726 278 z m 111 218 l 111 171 l 115 167 l 163 167 l 167 171 l 167 218 l 163 222 l 115 222 z m 222 218 l 222 171 l 226 167 l 274 167 l 278 171 l 278 218 l 274 222 l 226 222 z m 333 218 l 333 171 l 338 167 l 385 167 l 389 171 l 389 218 l 385 222 l 338 222 z m 444 218 l 444 171 l 449 167 l 496 167 l 500 171 l 500 218 l 496 222 l 449 222 z m 556 218 l 556 171 l 560 167 l 607 167 l 611 171 l 611 218 l 607 222 l 560 222 z m 667 218 l 667 171 l 671 167 l 718 167 l 722 171 l 722 218 l 718 222 l 671 222 z m 167 163 l 167 115 l 171 111 l 218 111 l 222 115 l 222 163 l 218 167 l 171 167 z m 278 163 l 278 115 l 282 111 l 329 111 l 333 115 l 333 163 l 329 167 l 282 167 z m 389 163 l 389 115 l 393 111 l 440 111 l 444 115 l 444 163 l 440 167 l 393 167 z m 500 163 l 500 115 l 504 111 l 551 111 l 556 115 l 556 163 l 551 167 l 504 167 z m 611 163 l 611 115 l 615 111 l 663 111 l 667 115 l 667 163 l 663 167 l 615 167 z m 722 163 l 722 115 l 726 111 l 774 111 l 778 115 l 778 163 l 774 167 l 726 167 z m 111 107 l 111 60 l 115 56 l 163 56 l 167 60 l 167 107 l 163 111 l 115 111 z m 222 107 l 222 60 l 226 56 l 274 56 l 278 60 l 278 107 l 274 111 l 226 111 z m 333 107 l 333 60 l 338 56 l 385 56 l 389 60 l 389 107 l 385 111 l 338 111 z m 444 107 l 444 60 l 449 56 l 496 56 l 500 60 l 500 107 l 496 111 l 449 111 z m 556 107 l 556 60 l 560 56 l 607 56 l 611 60 l 611 107 l 607 111 l 560 111 z m 667 107 l 667 60 l 671 56 l 718 56 l 722 60 l 722 107 l 718 111 l 671 111 z m 167 51 l 167 4 l 171 0 l 218 0 l 222 4 l 222 51 l 218 56 l 171 56 z m 278 51 l 278 4 l 282 0 l 329 0 l 333 4 l 333 51 l 329 56 l 282 56 z m 389 51 l 389 4 l 393 0 l 440 0 l 444 4 l 444 51 l 440 56 l 393 56 z m 500 51 l 500 4 l 504 0 l 551 0 l 556 4 l 556 51 l 551 56 l 504 56 z m 611 51 l 611 4 l 615 0 l 663 0 l 667 4 l 667 51 l 663 56 l 615 56 z m 722 51 l 722 4 l 726 0 l 774 0 l 778 4 l 778 51 l 774 56 l 726 56 z "},"◊":{"ha":847,"x_min":0,"x_max":0,"o":"m 482 1000 l 365 1000 l 28 507 l 28 493 l 365 0 l 482 0 l 819 492 l 819 507 z m 431 117 l 417 117 l 161 500 l 417 883 l 431 883 l 686 500 z "},"@":{"ha":1519,"x_min":0,"x_max":0,"o":"m 111 371 b 797 -278 111 -39 411 -278 b 1251 -132 1032 -278 1172 -197 l 1251 -118 l 1189 -42 l 1175 -42 b 797 -167 1114 -94 994 -167 b 231 371 492 -167 231 24 b 776 908 231 718 485 908 b 1289 433 1054 908 1289 718 b 1140 156 1289 231 1200 156 b 1078 211 1100 156 1078 172 l 1078 694 l 994 694 l 967 604 l 953 604 b 739 711 918 657 854 711 b 428 371 571 711 428 592 b 739 31 428 150 571 31 b 963 147 865 31 932 93 l 976 147 b 1140 47 999 82 1058 47 b 1408 433 1288 47 1408 193 b 776 1017 1408 781 1138 1017 b 111 371 401 1017 111 781 z m 542 371 b 758 608 542 529 632 608 b 975 371 885 608 975 529 b 758 133 975 213 885 133 b 542 371 632 133 542 213 z "},"&":{"ha":1058,"x_min":0,"x_max":0,"o":"m 989 535 l 864 535 l 681 292 l 450 521 l 499 546 b 676 789 614 606 676 681 b 421 1017 676 911 578 1017 b 150 779 276 1017 150 925 b 268 546 150 688 196 622 b 83 271 181 493 83 411 b 394 -17 83 104 217 -17 b 692 122 535 -17 622 44 l 749 67 b 910 0 800 15 833 0 l 989 0 l 989 106 l 878 106 l 861 113 l 763 211 l 989 514 z m 415 908 b 554 786 494 908 554 861 b 429 629 554 717 504 668 l 371 599 b 272 776 310 660 272 706 b 415 908 272 868 339 908 z m 397 92 b 206 275 293 92 206 160 b 344 468 206 379 274 431 l 611 204 b 397 92 547 129 490 92 z "},"¶":{"ha":1000,"x_min":0,"x_max":0,"o":"m 83 719 b 383 439 83 556 217 439 l 444 439 l 444 0 l 567 0 l 567 900 l 689 900 l 689 0 l 811 0 l 811 900 l 944 900 l 944 1000 l 383 1000 b 83 719 217 1000 83 883 z "},"§":{"ha":806,"x_min":0,"x_max":0,"o":"m 56 433 b 272 204 56 314 150 249 l 411 154 b 563 13 501 122 563 93 b 401 -114 563 -60 504 -114 b 222 46 301 -114 231 -60 l 97 46 l 97 25 b 401 -217 119 -121 235 -217 b 685 21 576 -217 685 -121 b 628 161 685 82 663 128 l 628 175 b 750 367 688 208 750 265 b 533 596 750 486 656 551 l 394 646 b 243 788 304 678 243 707 b 404 917 243 860 301 917 b 575 765 507 917 575 865 l 697 765 l 697 786 b 404 1017 685 921 579 1017 b 121 779 229 1017 121 921 b 178 638 121 718 143 674 l 178 624 b 56 433 118 592 56 535 z m 175 458 b 257 578 175 525 213 561 l 461 503 b 631 342 575 461 631 422 b 549 222 631 275 593 239 l 344 297 b 175 458 231 339 175 378 z "},"©":{"ha":1158,"x_min":0,"x_max":0,"o":"m 579 1017 b 63 500 285 1017 63 793 b 579 -17 63 207 285 -17 b 1096 500 872 -17 1096 207 b 579 1017 1096 793 872 1017 z m 579 39 b 121 500 315 39 121 238 b 579 961 121 763 315 961 b 1038 500 842 961 1038 763 b 579 39 1038 238 842 39 z m 590 279 b 388 501 472 279 388 364 b 590 724 388 639 472 724 b 754 592 686 724 742 664 l 810 592 l 810 613 b 590 779 793 700 718 779 b 329 501 438 779 329 664 b 590 224 329 339 438 224 b 817 396 718 224 799 304 l 817 417 l 761 417 b 590 279 746 335 690 279 z "},"®":{"ha":1158,"x_min":0,"x_max":0,"o":"m 579 1017 b 63 500 285 1017 63 793 b 579 -17 63 207 285 -17 b 1096 500 872 -17 1096 207 b 579 1017 1096 793 872 1017 z m 579 39 b 121 500 315 39 121 238 b 579 961 121 763 315 961 b 1038 500 842 961 1038 763 b 579 39 1038 238 842 39 z m 807 617 b 649 772 807 713 743 772 l 396 772 l 396 231 l 454 231 l 454 461 l 594 461 l 714 231 l 771 231 l 771 251 l 660 461 b 807 617 749 467 807 525 z m 636 517 l 454 517 l 454 717 l 636 717 b 749 617 707 717 749 682 b 636 517 749 551 707 517 z "},"™":{"ha":1219,"x_min":0,"x_max":0,"o":"m 56 944 l 253 944 l 253 514 l 314 514 l 314 944 l 510 944 l 510 1000 l 56 1000 z m 572 514 l 633 514 l 633 910 l 647 910 l 819 514 l 889 514 l 1061 910 l 1075 910 l 1075 514 l 1136 514 l 1136 1000 l 1035 1000 l 861 592 l 847 592 l 672 1000 l 572 1000 z "},"°":{"ha":572,"x_min":0,"x_max":0,"o":"m 286 567 b 517 792 415 567 517 664 b 286 1017 517 921 415 1017 b 56 792 157 1017 56 921 b 286 567 56 664 157 567 z m 286 664 b 158 792 210 664 158 717 b 286 919 158 868 210 919 b 414 792 363 919 414 868 b 286 664 414 717 363 664 z "},"′":{"ha":285,"x_min":0,"x_max":0,"o":"m 164 653 l 229 979 l 229 1000 l 106 1000 l 83 674 l 83 653 z "},"″":{"ha":493,"x_min":0,"x_max":0,"o":"m 164 653 l 229 979 l 229 1000 l 106 1000 l 83 674 l 83 653 z m 372 653 l 438 979 l 438 1000 l 314 1000 l 292 674 l 292 653 z "},"|":{"ha":333,"x_min":0,"x_max":0,"o":"m 111 1000 l 111 -278 l 222 -278 l 222 1000 z "},"¦":{"ha":333,"x_min":0,"x_max":0,"o":"m 111 558 l 222 558 l 222 1000 l 111 1000 z m 111 -278 l 222 -278 l 222 164 l 111 164 z "},"†":{"ha":778,"x_min":0,"x_max":0,"o":"m 528 694 l 435 685 l 444 797 l 444 1000 l 333 1000 l 333 797 l 343 685 l 250 694 l 56 694 l 56 594 l 250 594 l 344 604 l 333 450 l 333 0 l 444 0 l 444 450 l 433 604 l 528 594 l 722 594 l 722 694 z "},"‡":{"ha":778,"x_min":0,"x_max":0,"o":"m 722 594 l 722 694 l 528 694 l 435 685 l 444 797 l 444 1000 l 333 1000 l 333 797 l 343 685 l 250 694 l 56 694 l 56 594 l 250 594 l 344 604 l 333 450 l 333 244 l 344 90 l 250 100 l 56 100 l 56 0 l 250 0 l 343 10 l 333 -103 l 333 -278 l 444 -278 l 444 -103 l 435 10 l 528 0 l 722 0 l 722 100 l 528 100 l 433 90 l 444 244 l 444 450 l 433 604 l 528 594 z "},"␠":{"ha":778,"x_min":0,"x_max":0,"o":"m 156 0 l 56 0 l 56 -194 l 722 -194 l 722 0 l 622 0 l 622 -97 l 156 -97 z "},"̈":{"ha":0,"x_min":0,"x_max":0,"o":"m -486 972 l -486 826 l -333 826 l -333 972 z m -208 972 l -208 826 l -56 826 l -56 972 z "},"̇":{"ha":0,"x_min":0,"x_max":0,"o":"m -208 972 l -208 826 l -56 826 l -56 972 z "},"̀":{"ha":0,"x_min":0,"x_max":0,"o":"m -197 799 l -90 799 l -90 819 l -215 1000 l -346 1000 l -346 979 z "},"́":{"ha":0,"x_min":0,"x_max":0,"o":"m -232 799 l -83 979 l -83 1000 l -214 1000 l -339 819 l -339 799 z "},"̋":{"ha":0,"x_min":0,"x_max":0,"o":"m -408 799 l -315 979 l -315 1000 l -440 1000 l -510 819 l -510 799 z m -208 799 l -87 979 l -87 1000 l -218 1000 l -315 819 l -315 799 z "},"̂":{"ha":0,"x_min":0,"x_max":0,"o":"m -221 1000 l -365 1000 l -504 819 l -504 799 l -404 799 l -293 931 l -182 799 l -82 799 l -82 819 z "},"̌":{"ha":0,"x_min":0,"x_max":0,"o":"m -182 1000 l -293 868 l -404 1000 l -504 1000 l -504 979 l -365 799 l -221 799 l -82 979 l -82 1000 z "},"̆":{"ha":0,"x_min":0,"x_max":0,"o":"m -192 1000 b -301 883 -193 935 -221 883 b -411 1000 -382 883 -410 935 l -506 1000 l -506 979 b -301 792 -500 883 -440 792 b -97 979 -162 792 -103 883 l -97 1000 z "},"̊":{"ha":0,"x_min":0,"x_max":0,"o":"m -214 781 b -86 900 -139 781 -86 832 b -214 1019 -86 968 -139 1019 b -342 900 -289 1019 -342 968 b -214 781 -342 832 -289 781 z m -214 847 b -269 900 -249 847 -269 869 b -214 953 -269 931 -249 953 b -158 900 -179 953 -158 931 b -214 847 -158 869 -179 847 z "},"̃":{"ha":0,"x_min":0,"x_max":0,"o":"m -151 951 b -217 882 -156 907 -175 882 b -408 963 -281 882 -311 963 b -569 819 -510 963 -562 889 l -569 799 l -481 799 b -415 868 -476 843 -457 868 b -224 788 -351 868 -321 788 b -62 931 -122 788 -69 861 l -62 951 z "},"̄":{"ha":0,"x_min":0,"x_max":0,"o":"m -444 924 l -444 826 l -56 826 l -56 924 z "},"̒":{"ha":0,"x_min":0,"x_max":0,"o":"m -60 1138 b -222 986 -167 1138 -222 1092 l -222 819 l -56 819 l -56 972 l -144 972 l -144 990 b -56 1068 -144 1049 -118 1068 l -28 1068 l -28 1138 z "},"̦":{"ha":0,"x_min":0,"x_max":0,"o":"m -222 -83 l -222 -236 l -133 -236 l -133 -254 b -222 -332 -133 -312 -160 -332 l -250 -332 l -250 -401 l -218 -401 b -56 -250 -111 -401 -56 -356 l -56 -83 z "},"̧":{"ha":0,"x_min":0,"x_max":0,"o":"m -272 0 l -294 -101 l -294 -122 l -211 -122 b -156 -165 -174 -122 -156 -139 b -222 -215 -156 -193 -179 -215 b -360 -164 -281 -215 -326 -185 l -381 -164 l -381 -250 b -215 -292 -349 -267 -293 -292 b -58 -164 -121 -292 -58 -240 b -190 -62 -58 -92 -118 -58 l -211 -64 l -197 0 z "},"̨":{"ha":0,"x_min":0,"x_max":0,"o":"m -103 -264 l -103 -189 l -124 -189 b -183 -207 -139 -197 -157 -207 b -250 -142 -222 -207 -250 -178 b -103 0 -250 -85 -203 -46 l -211 0 b -353 -169 -275 -26 -353 -71 b -211 -294 -353 -247 -285 -294 b -103 -264 -160 -294 -124 -278 z "},"̵":{"ha":0,"x_min":0,"x_max":0,"o":"m -521 0 l -521 -83 l -62 -83 l -62 0 z "},"̶":{"ha":0,"x_min":0,"x_max":0,"o":"m -1083 83 l -1083 0 l -83 0 l -83 83 z "},"̷":{"ha":0,"x_min":0,"x_max":0,"o":"m -528 89 l -528 -14 l -507 -14 l -83 218 l -83 321 l -104 321 z "},"̸":{"ha":0,"x_min":0,"x_max":0,"o":"m -146 694 l -736 21 l -736 0 l -674 0 l -83 674 l -83 694 z "},"´":{"ha":478,"x_min":0,"x_max":0,"o":"m 218 799 l 367 979 l 367 1000 l 236 1000 l 111 819 l 111 799 z "},"˘":{"ha":631,"x_min":0,"x_max":0,"o":"m 425 1000 b 315 883 424 935 396 883 b 206 1000 235 883 207 935 l 111 1000 l 111 979 b 315 792 117 883 176 792 b 519 979 454 792 514 883 l 519 1000 z "},"ˇ":{"ha":644,"x_min":0,"x_max":0,"o":"m 433 1000 l 322 868 l 211 1000 l 111 1000 l 111 979 l 250 799 l 394 799 l 533 979 l 533 1000 z "},"¸":{"ha":521,"x_min":0,"x_max":0,"o":"m 219 0 l 197 -101 l 197 -122 l 281 -122 b 336 -165 318 -122 336 -139 b 269 -215 336 -193 313 -215 b 132 -164 211 -215 165 -185 l 111 -164 l 111 -250 b 276 -292 143 -267 199 -292 b 433 -164 371 -292 433 -240 b 301 -62 433 -92 374 -58 l 281 -64 l 294 0 z "},"ˆ":{"ha":644,"x_min":0,"x_max":0,"o":"m 394 1000 l 250 1000 l 111 819 l 111 799 l 211 799 l 322 931 l 433 799 l 533 799 l 533 819 z "},"¨":{"ha":653,"x_min":0,"x_max":0,"o":"m 104 972 l 104 826 l 257 826 l 257 972 z m 382 972 l 382 826 l 535 826 l 535 972 z "},"˙":{"ha":375,"x_min":0,"x_max":0,"o":"m 83 972 l 83 826 l 236 826 l 236 972 z "},"`":{"ha":478,"x_min":0,"x_max":0,"o":"m 260 799 l 367 799 l 367 819 l 242 1000 l 111 1000 l 111 979 z "},"˝":{"ha":644,"x_min":0,"x_max":0,"o":"m 213 799 l 306 979 l 306 1000 l 181 1000 l 111 819 l 111 799 z m 413 799 l 533 979 l 533 1000 l 403 1000 l 306 819 l 306 799 z "},"¯":{"ha":611,"x_min":0,"x_max":0,"o":"m 111 924 l 111 826 l 500 826 l 500 924 z "},"˛":{"ha":489,"x_min":0,"x_max":0,"o":"m 358 -264 l 358 -189 l 338 -189 b 278 -207 322 -197 304 -207 b 211 -142 239 -207 211 -178 b 358 0 211 -85 258 -46 l 250 0 b 108 -169 186 -26 108 -71 b 250 -294 108 -247 176 -294 b 358 -264 301 -294 338 -278 z "},"˚":{"ha":478,"x_min":0,"x_max":0,"o":"m 239 781 b 367 900 314 781 367 832 b 239 1019 367 968 314 1019 b 111 900 164 1019 111 968 b 239 781 111 832 164 781 z m 239 847 b 183 900 204 847 183 869 b 239 953 183 931 204 953 b 294 900 274 953 294 931 b 239 847 294 869 274 847 z "},"˜":{"ha":729,"x_min":0,"x_max":0,"o":"m 529 951 b 464 882 525 907 506 882 b 272 963 400 882 369 963 b 111 819 171 963 118 889 l 111 799 l 200 799 b 265 868 204 843 224 868 b 457 788 329 868 360 788 b 618 931 558 788 611 861 l 618 951 z "}}}
